<?xml version="1.0" encoding="UTF-8" standalone="no"?>
<!DOCTYPE svg PUBLIC "-//W3C//DTD SVG 1.1//EN" "http://www.w3.org/Graphics/SVG/1.1/DTD/svg11.dtd">
<!-- Created with Vectornator (http://vectornator.io/) -->
<svg height="100%" stroke-miterlimit="10" style="fill-rule:nonzero;clip-rule:evenodd;stroke-linecap:round;stroke-linejoin:round;" version="1.1" viewBox="0 0 127.442 97.8821" width="100%" xml:space="preserve" xmlns="http://www.w3.org/2000/svg" xmlns:vectornator="http://vectornator.io" xmlns:xlink="http://www.w3.org/1999/xlink">
<defs/>
<clipPath id="ArtboardFrame">
<rect height="97.8821" width="127.442" x="0" y="0"/>
</clipPath>
<g clip-path="url(#ArtboardFrame)" id="Слой-1" vectornator:layerName="Слой 1">
<path d="M227.751 141.527C227.751 141.152 227.751 142.276 227.751 142.651C227.751 143.171 227.751 143.691 227.751 144.211C227.751 146.206 227.808 147.971 228.427 149.897C230.133 155.204 232.784 160.895 238.614 162.547C243.978 164.068 242.451 152.057 242.378 149.974C242.321 148.34 242.263 146.64 242.263 145.023C242.263 144.882 242.301 144.83 242.147 144.83" fill="none" opacity="1" stroke="#000000" stroke-linecap="round" stroke-linejoin="miter" stroke-width="4.1"/>
<path d="M230.573 165.021C222.958 165.021 220.572 165.564 219.61 173.564C219.275 176.351 220.091 178.828 220.35 181.555C220.385 181.921 220.234 183.715 220.803 183.715" fill="none" opacity="1" stroke="#000000" stroke-linecap="round" stroke-linejoin="miter" stroke-width="4.1"/>
<path d="M214.815 188.901C215.244 188.901 219.912 187.991 219.912 187.133" fill="none" opacity="1" stroke="#000000" stroke-linecap="round" stroke-linejoin="miter" stroke-width="4.1"/>
<path d="M246.777 163.347C248.576 163.735 250.457 163.8 252.155 164.604C255.246 166.067 259.18 173.088 260.318 176.391C260.641 177.33 261.232 179.593 260.438 180.397C259.863 180.98 258.813 180.974 258.338 181.65C258.015 182.111 258.181 185.479 258.181 184.354" fill="none" opacity="1" stroke="#000000" stroke-linecap="round" stroke-linejoin="miter" stroke-width="4.1"/>
<path d="M258.993 186.775C259.282 187.277 261.316 187.605 261.888 187.811C262.68 188.095 263.849 189.175 264.684 189.175" fill="none" opacity="1" stroke="#000000" stroke-linecap="round" stroke-linejoin="miter" stroke-width="4.1"/>
<path d="M230.305 147.156C230.442 147.461 232.602 147.256 232.932 147.256C235.587 147.256 238.157 148.266 240.728 148.266" fill="none" opacity="1" stroke="#000000" stroke-linecap="round" stroke-linejoin="miter" stroke-width="4.1"/>
<path d="M228.458 134.223C230.932 135.036 233.151 135.824 235.829 135.455C236.668 135.34 238.04 133.366 238.821 133.566C238.884 133.582 238.844 133.694 238.844 133.759C238.844 134.573 240.614 138.668 241.631 138.818" fill="none" opacity="1" stroke="#000000" stroke-linecap="round" stroke-linejoin="miter" stroke-width="4.1"/>
<path d="M227.985 125.613C228.929 126.256 235.162 125.506 235.721 124.411C236.519 122.847 235.915 120.686 236.118 118.998C236.284 117.625 237.176 116.571 237.541 115.268C238.393 112.223 237.991 104.027 235.562 101.898C233.156 99.7901 231.194 102.888 229.794 104.495C226.446 108.339 224.87 112.621 224.724 117.744C224.698 118.684 224.317 120.791 225.286 121.445" fill="none" opacity="1" stroke="#000000" stroke-linecap="round" stroke-linejoin="miter" stroke-width="4.1"/>
<path d="M230.519 114.028L230.579 114.028L230.982 114.028L231.225 114.028L231.45 114.03L231.638 114.06L231.783 114.117L231.898 114.151L231.994 114.179L232.041 114.199L232.075 114.199L232.121 114.199L232.147 114.199L232.147 114.199" fill="none" opacity="1" stroke="#000000" stroke-linecap="round" stroke-linejoin="miter" stroke-width="4.1"/>
<path d="M229.024 109.13C230.999 109.13 232.969 109.331 234.931 109.331C235.174 109.331 236.509 109.499 236.519 109.171" fill="none" opacity="1" stroke="#000000" stroke-linecap="round" stroke-linejoin="miter" stroke-width="4.1"/>
<path d="M229.179 120.005L229.102 120.005L228.788 120.005L228.563 120.005L228.31 120.005L228.071 120.005L227.848 120.005L227.666 120.005L227.547 120.005L227.484 120.005L227.484 120.005" fill="none" opacity="1" stroke="#000000" stroke-linecap="round" stroke-linejoin="miter" stroke-width="4.1"/>
<path d="M188.267 138.857C194.684 138.857 201.286 139.326 207.695 138.814C210.025 138.627 212.475 139.093 214.78 138.73C215.15 138.672 216.835 138.825 216.729 138.375" fill="none" opacity="1" stroke="#000000" stroke-linecap="round" stroke-linejoin="miter" stroke-width="4.1"/>
<path d="M248.765 136.872C258.269 136.871 267.774 136.872 277.279 136.872C277.853 136.872 284.861 137.021 284.909 136.409" fill="none" opacity="1" stroke="#000000" stroke-linecap="round" stroke-linejoin="miter" stroke-width="4.1"/>
<path d="M188.988 149.595C188.926 149.744 189.303 149.664 189.381 149.664C190.416 149.664 191.451 149.664 192.485 149.664C193.329 149.664 194.172 149.664 195.016 149.664C200.178 149.664 205.342 149.71 210.504 149.664C212.631 149.644 214.748 149.489 216.879 149.489C217.153 149.489 217.254 149.59 217.254 149.296" fill="none" opacity="1" stroke="#000000" stroke-linecap="round" stroke-linejoin="miter" stroke-width="4.1"/>
<path d="M248.384 148.838C248.628 149.113 248.413 148.905 249.279 148.905C251.146 148.905 253.013 148.905 254.879 148.905C262.752 148.905 270.625 148.905 278.498 148.905C280.997 148.905 283.495 148.905 285.994 148.905C286.12 148.905 290.483 149.016 289.455 148.651" fill="none" opacity="1" stroke="#000000" stroke-linecap="round" stroke-linejoin="miter" stroke-width="4.1"/>
<path d="M187.322 160.887C187.801 161.414 188.744 160.955 189.456 160.955C190.413 160.955 191.369 160.955 192.326 160.955C196.247 160.955 200.169 160.955 204.09 160.955C206.367 160.955 208.644 160.955 210.921 160.955C211.041 160.955 214.493 161.031 214.424 160.79" fill="none" opacity="1" stroke="#000000" stroke-linecap="round" stroke-linejoin="miter" stroke-width="4.1"/>
<path d="M249.932 158.177C257.396 158.177 265.148 158.841 272.589 158.177C276.695 157.811 280.771 156.425 284.935 156.425" fill="none" opacity="1" stroke="#000000" stroke-linecap="round" stroke-linejoin="miter" stroke-width="4.1"/>
<path d="M279.331 131.552C282.752 131.552 286.717 131.021 289.878 132.675C297.131 136.471 293.549 151.3 292.742 157.022C292.313 160.067 292.183 161.048 291.876 164.158C291.421 168.762 290.092 174.501 290.926 179.163C291.174 180.548 295.382 179.984 295.736 178.893" fill="none" opacity="1" stroke="#000000" stroke-linecap="round" stroke-linejoin="miter" stroke-width="4.1"/>
<path d="M243.738 132.236C245.993 131.262 248.073 129.975 250.366 129.069C252.952 128.046 258.28 124.731 261.302 126.062C262.61 126.638 261.902 129.514 262.04 130.58C262.5 134.125 264.09 137.342 264.69 140.838" fill="none" opacity="1" stroke="#000000" stroke-linecap="round" stroke-linejoin="miter" stroke-width="4.1"/>
<path d="M222.489 135.488C221.288 133.17 218.92 131.691 216.984 130.041C215.693 128.94 214.5 127.728 213.209 126.626C212.676 126.171 211.633 125.423 211.006 125.034C207.374 122.787 207.789 127.463 206.785 129.718C205.679 132.203 204.07 134.229 202.437 136.362" fill="none" opacity="1" stroke="#000000" stroke-linecap="round" stroke-linejoin="miter" stroke-width="4.1"/>
<path d="M263.099 170.202C263.099 168.257 263.133 166.64 263.958 164.851C264.021 164.714 264.526 163.491 264.671 163.574" fill="none" opacity="1" stroke="#000000" stroke-linecap="round" stroke-linejoin="miter" stroke-width="4.1"/>
<path d="M268.852 169.951C268.852 170.309 268.852 169.236 268.852 168.879C268.852 168.522 268.844 168.165 268.852 167.808C268.876 166.734 269.649 164.169 270.985 163.918" fill="none" opacity="1" stroke="#000000" stroke-linecap="round" stroke-linejoin="miter" stroke-width="4.1"/>
<path d="M277.667 169.824C277.319 168.576 279.414 162.315 281.026 162.315" fill="none" opacity="1" stroke="#000000" stroke-linecap="round" stroke-linejoin="miter" stroke-width="4.1"/>
<path d="M190.966 167.721C190.966 169.768 191.747 171.63 191.747 173.743" fill="none" opacity="1" stroke="#000000" stroke-linecap="round" stroke-linejoin="miter" stroke-width="4.1"/>
<path d="M198.932 167.204C199.466 167.964 198.984 170.894 198.984 171.922" fill="none" opacity="1" stroke="#000000" stroke-linecap="round" stroke-linejoin="miter" stroke-width="4.1"/>
<path d="M207.29 166.865C207.29 167.613 208.523 172.963 207.469 172.638" fill="none" opacity="1" stroke="#000000" stroke-linecap="round" stroke-linejoin="miter" stroke-width="4.1"/>
<path d="M189.328 177.203C189.67 176.839 192.673 177.146 193.11 177.146C194.392 177.146 203.165 177.772 204.188 177.036C204.434 176.858 204.795 177.025 205.098 177.034C205.83 177.057 211.369 177.658 209.498 176.072" fill="none" opacity="1" stroke="#000000" stroke-linecap="round" stroke-linejoin="miter" stroke-width="4.1"/>
<path d="M264.405 175.276C267.728 175.276 271.281 175.658 274.513 174.78C275.159 174.604 277.303 174.374 277.544 173.646" fill="none" opacity="1" stroke="#000000" stroke-linecap="round" stroke-linejoin="miter" stroke-width="4.1"/>
<path d="M225.595 176.628C226.706 176.024 230.615 176.571 231.656 176.571C234.993 176.571 238.331 176.571 241.668 176.571C242.023 176.571 246.225 176.852 246.109 176.256" fill="none" opacity="1" stroke="#000000" stroke-linecap="round" stroke-linejoin="miter" stroke-width="4.1"/>
<path d="M190.725 133C190.498 132.519 187.532 133.279 187.276 133.363C185.43 133.965 183.303 135.347 183.146 137.468C182.987 139.629 183.19 141.805 183.016 143.972C182.774 146.998 182.209 149.989 182.159 153.03C182.052 159.645 182.736 166.498 182.125 173.089C181.897 175.553 181.232 178.711 179.903 180.862C178.781 182.677 176.368 181.178 175.804 179.781" fill="none" opacity="1" stroke="#000000" stroke-linecap="round" stroke-linejoin="miter" stroke-width="4.1"/>
<path d="M34.9598 25.8756C35.9232 23.8344 38.2429 22.7237 40.1745 21.5561C42.1987 20.3326 44.3081 19.2177 46.521 18.3827C54.1 15.5226 58.9244 14.7189 67.0347 14.1529C75.0492 13.5935 85.4664 12.8497 93.0081 16.387C96.9736 18.2469 102.364 23.1469 105.07 26.3755C111.873 34.491 115.528 44.0818 117.66 54.3475C118.285 57.3581 118.639 60.4234 118.924 63.485C119.209 66.5409 119.561 72.462 118.098 75.5738C116.133 79.7506 111.23 81.8803 107.38 83.4591C104.039 84.8294 100.579 85.9232 97.0814 86.8217C85.1078 89.8971 72.0145 91.2579 59.6604 90.4742C56.5616 90.2777 53.461 89.8338 50.4523 89.0662C41.918 86.8889 32.8039 80.8957 36.0164 71.0111C37.8978 65.222 42.2905 60.4064 46.1096 55.854C49.5819 51.7152 53.183 47.6976 56.8814 43.7618" fill="none" opacity="1" stroke="#000000" stroke-linecap="round" stroke-linejoin="miter" stroke-width="4.1"/>
<path d="M44.5551 56.6347C44.5551 52.5982 45.7786 42.4125 42.5808 39.0833C41.6444 38.1083 32.5776 38.0778 32.5776 39.6257" fill="none" opacity="1" stroke="#000000" stroke-linecap="round" stroke-linejoin="miter" stroke-width="4.1"/>
<path d="M31.2419 25.47C31.2419 18.7719 22.4601 18.1736 17.7594 20.3658C11.9696 23.0658 9.28428 29.7883 9.44907 35.727C9.51965 38.2706 9.72342 42.0847 11.5187 44.1501C12.8821 45.7185 17.2063 44.8672 18.9607 44.8672C21.7198 44.8672 25.6347 45.5857 28.3287 44.817C30.147 44.2982 30.2329 39.5006 30.0159 38.2696" fill="none" opacity="1" stroke="#000000" stroke-linecap="round" stroke-linejoin="miter" stroke-width="4.1"/>
<path d="M13.0669 38.0697C15.1584 38.0697 17.25 38.0697 19.3415 38.0697" fill="none" opacity="1" stroke="#000000" stroke-linecap="round" stroke-linejoin="miter" stroke-width="4.1"/>
<path d="M19.8133 27.9701C19.355 27.984 20.7006 27.6849 21.1591 27.6849C21.998 27.6849 22.5486 27.7521 23.306 28.102C23.5865 28.2317 24.5894 29.4454 23.8956 29.6893" fill="none" opacity="1" stroke="#000000" stroke-linecap="round" stroke-linejoin="miter" stroke-width="4.1"/>
<path d="M104.101 67.3645C103.695 66.9301 103.98 68.8152 104.006 68.9479C104.255 70.2604 106.28 73.0615 107.781 71.3058" fill="none" opacity="1" stroke="#000000" stroke-linecap="round" stroke-linejoin="miter" stroke-width="4.1"/>
<path d="M13.172 22.1199C13.172 20.8184 12.6307 19.5422 12.8234 18.2277C13.202 15.6452 16.6594 13.3248 18.195 11.4229C19.223 10.1495 20.937 7.74619 22.8432 7.90949C22.9565 7.9192 22.5077 8.7348 22.5037 8.74561C22.3587 9.13523 22.0833 11.5906 22.3488 11.612C23.3354 11.6917 24.8533 9.91715 26.3463 10.1602C27.2885 10.3135 25.6238 12.0242 27.267 11.9187C27.6225 11.8959 27.9785 11.8652 28.3298 11.8058C28.6362 11.7541 32.4535 10.65 32.5328 10.6923C32.7122 10.788 32.263 10.9982 32.1508 11.1677C32.0531 11.3153 31.4879 12.4441 31.8151 12.5989C32.3116 12.8337 36.1699 12.5963 36.2046 12.68C36.4927 13.3734 34.5651 16.375 35.4749 17.682C35.9407 18.3512 38.4196 18.1973 38.4695 18.2851C38.8937 19.0308 36.9371 23.1741 36.5253 23.8228" fill="none" opacity="1" stroke="#000000" stroke-linecap="round" stroke-linejoin="miter" stroke-width="4.1"/>
<path d="M61.6326 30.9657C60.7126 30.9657 59.8016 30.8872 58.9475 31.3C57.2248 32.1325 54.725 35.138 57.1728 36.5956C61.0774 38.9207 70.6696 37.3654 70.4183 44.0432C70.3157 46.7672 67.7457 48.9208 66.0648 50.7813C62.7435 54.4573 59.2507 57.9535 55.4426 61.128" fill="none" opacity="1" stroke="#000000" stroke-linecap="round" stroke-linejoin="miter" stroke-width="4.1"/>
<path d="M30.6781 63.4699C31.4995 63.8233 35.9303 65.8746 37.0977 65.0331" fill="none" opacity="1" stroke="#000000" stroke-linecap="round" stroke-linejoin="miter" stroke-width="4.1"/>
<path d="M107.617 60.638C107.857 60.5799 108.106 59.9937 108.2 59.7954" fill="none" opacity="1" stroke="#000000" stroke-linecap="round" stroke-linejoin="miter" stroke-width="1.1"/>
<path d="M102.01 59.7346C102.154 59.4605 102.029 58.7216 102.029 58.4056" fill="none" opacity="1" stroke="#000000" stroke-linecap="round" stroke-linejoin="miter" stroke-width="1.1"/>
<path d="M99.1065 62.7269C98.5615 62.7269 98.1467 62.6494 97.8209 62.17" fill="none" opacity="1" stroke="#000000" stroke-linecap="round" stroke-linejoin="miter" stroke-width="1.1"/>
<path d="M97.0773 69.7594L97.1362 69.7594L97.2866 69.7594L97.3776 69.7594L97.4537 69.7453L97.5136 69.7308L97.558 69.7168L97.5891 69.6891L97.634 69.6702L97.6999 69.6562L97.7753 69.6471L97.8442 69.6471L97.913 69.6471L97.913 69.6471" fill="none" opacity="1" stroke="#000000" stroke-linecap="round" stroke-linejoin="miter" stroke-width="1.1"/>
</g>
<g clip-path="url(#ArtboardFrame)" id="Слой-2" vectornator:layerName="Слой 2">
<path d="M392.284 25.2587C391.425 25.6484 392.662 29.3622 392.948 29.7952C394.737 32.5053 397.55 33.9744 400.538 34.994C400.995 35.15 402.817 36.0456 403.253 35.3361C405.128 32.2854 404.612 18.6095 401.62 16.5195C399.3 14.8991 393.484 16.2848 392.989 19.4534" fill="none" opacity="1" stroke="#000000" stroke-linecap="round" stroke-linejoin="miter" stroke-width="4.1"/>
<path d="M399.356 60.1689C399.356 54.7323 400.261 48.5606 399.285 43.2307C399.057 41.9881 395.18 40.7972 394.885 41.284" fill="none" opacity="1" stroke="#000000" stroke-linecap="round" stroke-linejoin="miter" stroke-width="4.1"/>
<path d="M376.787 57.1789C378.991 57.1789 383.302 58.0502 385.345 57.1428C386.977 56.4179 386.024 49.3758 388.868 47.9249C389.745 47.4774 391.485 48.5732 392.41 48.6695" fill="none" opacity="1" stroke="#000000" stroke-linecap="round" stroke-linejoin="miter" stroke-width="4.1"/>
<path d="M409.903 47.9785C410.785 47.3686 413.379 47.7304 414.314 48.3176C416.466 49.669 414.297 52.793 415.801 54.2611C417.297 55.7221 422.945 55.17 423.191 52.4177" fill="none" opacity="1" stroke="#000000" stroke-linecap="round" stroke-linejoin="miter" stroke-width="4.1"/>
<path d="M385.988 91.9249C386.526 91.4276 385.808 83.6002 386.203 81.9888C387.697 75.8788 392.363 68.5753 397.606 64.8982" fill="none" opacity="1" stroke="#000000" stroke-linecap="round" stroke-linejoin="miter" stroke-width="4.1"/>
<path d="M411.528 92.0682C411.528 85.1711 412.465 77.6711 408.623 71.5158C406.48 68.0819 401.481 69.969 401.481 65.4867" fill="none" opacity="1" stroke="#000000" stroke-linecap="round" stroke-linejoin="miter" stroke-width="4.1"/>
<path d="M397.841 24.344L397.993 24.344L398.445 24.344L398.727 24.344L398.944 24.344L399.144 24.3288L399.307 24.2794L399.438 24.2452L399.548 24.2452L399.602 24.2452L399.606 24.2122L399.606 24.1646L399.606 24.1029L399.606 24.1029" fill="none" opacity="1" stroke="#000000" stroke-linecap="round" stroke-linejoin="miter" stroke-width="4.1"/>
<path d="M399.933 28.889L400.073 28.889L400.167 28.889L400.274 28.889L400.522 28.889L400.572 28.889L400.671 28.889L400.783 28.889L400.899 28.889L401.022 28.889L401.178 28.8693L401.339 28.8199L401.524 28.7901L401.742 28.7901L402.052 28.7901L402.052 28.7901" fill="none" opacity="1" stroke="#000000" stroke-linecap="round" stroke-linejoin="miter" stroke-width="4.1"/>
<path d="M387.27 17.9766C392.843 17.9766 398.489 18.2323 404.055 17.9145C404.373 17.8964 408.515 17.6693 408.515 17.2785" fill="none" opacity="1" stroke="#000000" stroke-linecap="round" stroke-linejoin="miter" stroke-width="4.1"/>
<path d="M390.921 17.9824C390.921 16.8285 390.549 10.5876 391.121 9.99514C391.909 9.17781 394.399 9.67414 395.394 9.67414C398.84 9.67414 402.979 9.76953 402.979 14.3902" fill="none" opacity="1" stroke="#000000" stroke-linecap="round" stroke-linejoin="miter" stroke-width="4.1"/>
<path d="M427.354 49.1788C426.744 48.1116 425.793 47.2541 424.821 46.5095C424.33 46.1342 422.102 44.5872 421.299 45.1071C420.769 45.4498 421.129 48.4775 421.129 49.0717C421.129 53.0961 422.136 57.1312 422.672 61.1073C422.88 62.6496 423.092 64.1725 423.355 65.7072C423.618 67.2377 423.841 68.7772 424.055 70.3151C424.342 72.3739 424.463 74.4624 424.522 76.5407C424.609 79.574 424.653 82.5205 425.226 85.5134C425.434 86.6004 425.648 87.6768 425.906 88.752C425.957 88.9635 426.295 90.0919 426.295 89.8378" fill="none" opacity="1" stroke="#000000" stroke-linecap="round" stroke-linejoin="miter" stroke-width="4.1"/>
<path d="M420.645 62.2475L420.915 62.2475L422.043 62.2475L422.734 62.2475L423.122 62.2475L423.348 62.2475L423.348 62.2475" fill="none" opacity="1" stroke="#000000" stroke-linecap="round" stroke-linejoin="miter" stroke-width="4.1"/>
<path d="M423.255 62.2475C425.204 61.7298 426.877 60.4568 428.919 60.2374" fill="none" opacity="1" stroke="#000000" stroke-linecap="round" stroke-linejoin="miter" stroke-width="4.1"/>
<path d="M403.353 61.6599C403.353 60.2218 403.308 58.971 403.912 57.6341C404.877 55.4979 406.803 53.9519 407.784 51.8409C408.209 50.9244 407.96 49.5674 407.96 48.5828C407.96 44.8517 406.956 41.2754 402.698 41.2754" fill="none" opacity="1" stroke="#000000" stroke-linecap="round" stroke-linejoin="miter" stroke-width="4.1"/>
</g>
</svg>
