<?xml version="1.0" encoding="UTF-8" standalone="no"?>
<!DOCTYPE svg PUBLIC "-//W3C//DTD SVG 1.1//EN" "http://www.w3.org/Graphics/SVG/1.1/DTD/svg11.dtd">
<!-- Created with Vectornator (http://vectornator.io/) -->
<svg height="100%" stroke-miterlimit="10" style="fill-rule:nonzero;clip-rule:evenodd;stroke-linecap:round;stroke-linejoin:round;" version="1.1" viewBox="0 0 68.284 59.0701" width="100%" xml:space="preserve" xmlns="http://www.w3.org/2000/svg" xmlns:vectornator="http://vectornator.io" xmlns:xlink="http://www.w3.org/1999/xlink">
<defs/>
<g id="Слой-1" vectornator:layerName="Слой 1">
<path d="M39.9801 14.341C40.984 14.0064 42.2881 11.8938 41.9031 10.8028C41.2665 8.99915 39.1273 9.1277 38.4802 7.99528C37.7412 6.70195 38.2689 4.97663 37.5188 3.7648C36.12 1.50521 31.6194 1.75271 30.1731 3.84171C28.9732 5.57491 30.0615 7.408 29.4424 9.11058C29.1729 9.85169 28.305 10.1601 27.8656 10.7643C26.8563 12.1522 29.0733 13.3335 29.5962 14.3795" fill="none" opacity="1" stroke="#000000" stroke-linecap="round" stroke-linejoin="miter" stroke-width="2.1"/>
<path d="M38.5975 39.984C38.5975 37.7359 37.536 35.3278 37.2457 33.1151C36.9628 30.9588 36.8504 28.7806 36.5152 26.6318C36.2704 25.0626 35.694 23.4939 35.5925 21.9032C35.5326 20.9639 35.8012 20.1364 35.8233 19.2111C35.8766 16.9689 35.5821 14.5811 35.2464 12.3654C35.0928 11.3519 34.9735 8.7492 33.6311 8.36565C32.0867 7.92437 30.675 14.2893 30.5544 15.3267C29.6417 23.1758 26.5296 30.6937 26.5296 38.6306" fill="none" opacity="1" stroke="#000000" stroke-linecap="round" stroke-linejoin="miter" stroke-width="2.1"/>
<path d="M40.7365 15.8575C41.5735 18.0893 42.0967 22.3333 44.4671 23.6262C46.3777 24.6684 48.1421 26.327 49.236 28.2413C49.352 28.4444 50.4351 30.1189 50.1205 30.4334C48.3866 32.1674 43.7473 26.0913 43.0825 28.972C42.2528 32.5674 44.0897 36.4695 44.7747 39.8943C45.0106 41.0738 46.2291 44.0953 45.3132 45.2401C45.063 45.5528 44.2052 45.6385 43.8133 45.7785C43.1985 45.9981 41.8665 46.9085 41.1596 46.2016C40.8936 45.9356 39.0974 42.0706 39.0444 41.7788C39.0076 41.5766 38.8275 41.2654 39.0059 41.1635C39.0949 41.1126 39.2592 41.2504 39.3136 41.1635C39.4507 40.944 38.7751 40.2193 38.7751 40.0097" fill="none" opacity="1" stroke="#000000" stroke-linecap="round" stroke-linejoin="miter" stroke-width="2.1"/>
<path d="M29.7143 18.2902C29.1915 21.4268 25.1117 23.1305 22.8301 24.9051C22.0798 25.4886 20.4034 28.9239 20.2534 29.674C20.068 30.6008 23.0729 28.7864 23.5224 28.6741C24.671 28.3869 25.2324 29.5338 25.2915 30.597C25.4053 32.6458 23.6544 34.7817 22.9071 36.5966C22.1874 38.3444 22.6378 40.5446 22.6378 42.3654C22.6378 43.6654 22.7644 46.0212 24.4839 46.3652C26.6463 46.7977 26.5991 40.6504 26.5991 39.2502" fill="none" opacity="1" stroke="#000000" stroke-linecap="round" stroke-linejoin="miter" stroke-width="2.1"/>
<path d="M50.1748 30.5328C50.811 30.3737 51.1521 30.6646 51.7131 31.0327C52.4121 31.4915 52.0977 31.3129 52.713 31.8404C52.9402 32.0351 54.5662 33.7633 53.1745 33.7633C52.7936 33.7633 51.9506 33.01 51.7516 33.1095C51.5695 33.2006 51.7516 33.3751 51.7516 32.5711" fill="none" opacity="1" stroke="#000000" stroke-linecap="round" stroke-linejoin="miter" stroke-width="2.1"/>
<path d="M19.8097 29.8963C18.8431 29.8963 16.1316 33.5709 16.8868 34.7037C17.2455 35.2417 18.1559 33.314 18.1559 33.1268" fill="none" opacity="1" stroke="#000000" stroke-linecap="round" stroke-linejoin="miter" stroke-width="2.1"/>
<path d="M37.3295 37.6212C35.3235 37.6212 33.3075 37.2087 31.3012 37.352C30.2793 37.425 29.3476 37.7366 28.3014 37.7366" fill="none" opacity="1" stroke="#000000" stroke-linecap="round" stroke-linejoin="miter" stroke-width="2.1"/>
<path d="M34.0769 16.7427C33.5385 17.0471 31.1925 18.2864 31.1925 16.8966" fill="none" opacity="1" stroke="#000000" stroke-linecap="round" stroke-linejoin="miter" stroke-width="2.1"/>
<path d="M33.6924 19.281C33.2577 20.411 32.6155 21.6208 32.6155 22.8577" fill="none" opacity="1" stroke="#000000" stroke-linecap="round" stroke-linejoin="miter" stroke-width="2.1"/>
<path d="M34.8461 23.8192C33.7037 23.8826 32.1482 24.0086 31.0771 23.473" fill="none" opacity="1" stroke="#000000" stroke-linecap="round" stroke-linejoin="miter" stroke-width="2.1"/>
<path d="M35.1923 24.896C35.1012 25.4423 34.8442 25.9977 34.5769 26.4728C33.2156 28.8928 31.4519 26.8562 30.2695 25.3191C29.9962 24.9638 30.1753 24.3018 29.8849 24.0115" fill="none" opacity="1" stroke="#000000" stroke-linecap="round" stroke-linejoin="miter" stroke-width="2.1"/>
<path d="M37.2438 39.5587C37.2438 42.3828 35.3622 47.2444 36.5515 50.0196C37.2339 51.6117 41.1353 51.5724 42.4742 52.0963C43.0622 52.3264 44.3873 52.9432 44.1664 53.827C43.569 56.2165 36.3977 56.2424 36.3977 52.6732" fill="none" opacity="1" stroke="#000000" stroke-linecap="round" stroke-linejoin="miter" stroke-width="2.1"/>
<path d="M28.1905 39.5026C27.9016 42.2468 26.6308 45.4211 25.6138 47.9635C25.2524 48.8669 25.435 50.2253 24.8446 50.9633C24.4515 51.4547 23.5411 50.876 23.0755 50.8095C21.7349 50.618 19.5341 51.7742 19.4219 53.2324C19.214 55.9343 23.7197 54.8477 25.0753 54.8477" fill="none" opacity="1" stroke="#000000" stroke-linecap="round" stroke-linejoin="miter" stroke-width="2.1"/>
<path d="M32.5463 30.2021L32.4309 30.5098L32.3925 30.5867L32.3155 30.8175L32.2386 30.9713L32.2002 31.0098L32.2002 31.0098" fill="none" opacity="1" stroke="#000000" stroke-linecap="round" stroke-linejoin="miter" stroke-width="2.1"/>
<path d="M31.7771 33.7788L31.7387 33.9326L31.7002 34.0096L31.6233 34.2019L31.5464 34.4326L31.5079 34.548L31.431 34.8172L31.431 34.971L31.3925 35.0864L31.3925 35.1249L31.3925 35.1249" fill="none" opacity="1" stroke="#000000" stroke-linecap="round" stroke-linejoin="miter" stroke-width="2.1"/>
<path d="M34.2868 43.5079C35.2236 42.5711 34.5433 40.7513 34.8252 39.6235" fill="none" opacity="1" stroke="#000000" stroke-linecap="round" stroke-linejoin="miter" stroke-width="2.1"/>
<path d="M30.7101 42.6233C31.25 42.6233 31.3255 40.4024 31.3255 39.9697" fill="none" opacity="1" stroke="#000000" stroke-linecap="round" stroke-linejoin="miter" stroke-width="2.1"/>
<path d="M33.5762 45.7127C32.7826 45.6406 31.9912 45.7512 31.1917 45.7512C30.8453 45.7512 30.1533 45.3664 30.1533 45.7127" fill="none" opacity="1" stroke="#000000" stroke-linecap="round" stroke-linejoin="miter" stroke-width="2.1"/>
<path d="M56.1989 47.3965C56.8832 46.0278 57.7056 44.9991 57.7974 43.4381C57.9954 40.0732 56.3429 34.7382 58.6348 31.7915C60.2674 29.6925 60.5364 35.0245 60.8423 35.4834C61.0484 35.7926 61.8723 35.5691 61.9841 36.0163C62.1662 36.7445 61.9622 37.5492 62.2125 38.2999C62.8623 40.2492 64.8266 44.9961 64.1536 47.0158" fill="none" opacity="1" stroke="#000000" stroke-linecap="round" stroke-linejoin="miter" stroke-width="2.1"/>
<path d="M63.8491 41.6873C64.5312 41.6873 65.3511 41.9435 65.9044 42.2202" fill="none" opacity="1" stroke="#000000" stroke-linecap="round" stroke-linejoin="miter" stroke-width="2.1"/>
<path d="M55.0581 43.3365C56.3556 42.9905 57.5001 42.4142 58.7881 42.1566" fill="none" opacity="1" stroke="#000000" stroke-linecap="round" stroke-linejoin="miter" stroke-width="2.1"/>
<path d="M59.0926 41.6999C59.0926 40.7194 59.3157 39.801 59.4351 38.8453C59.441 38.7985 59.4507 38.5578 59.5493 38.617C60.2863 39.0591 59.9862 40.4026 60.1583 41.0909C60.4243 42.155 61.1591 43.1367 61.4523 44.2119C61.8156 45.5437 61.7949 46.7009 61.7949 48.018C61.7949 48.4964 61.8647 51.0565 61.9471 51.139C62.0427 51.2345 62.6516 51.1009 62.7845 51.1009C64.3037 51.1009 65.2255 50.3135 64.8017 48.7031C64.538 47.7009 64.345 47.0125 64.345 46.0008" fill="none" opacity="1" stroke="#000000" stroke-linecap="round" stroke-linejoin="miter" stroke-width="2.1"/>
<path d="M55.9335 48.627C55.573 48.9875 53.5092 51.9961 54.7917 52.5092C57.5864 53.6271 58.0649 46.3661 58.0649 45.506" fill="none" opacity="1" stroke="#000000" stroke-linecap="round" stroke-linejoin="miter" stroke-width="2.1"/>
<path d="M58.4456 50.0352C59.2161 49.7784 60.129 49.2359 60.9576 49.2359" fill="none" opacity="1" stroke="#000000" stroke-linecap="round" stroke-linejoin="miter" stroke-width="2.1"/>
<path d="M59.359 46.2672L59.4351 46.2291L59.5112 46.1911L59.9299 46.0008L60.1202 45.8866L60.2725 45.8105L60.3105 45.7724L60.3486 45.7343L60.3486 45.7343" fill="none" opacity="1" stroke="#000000" stroke-linecap="round" stroke-linejoin="miter" stroke-width="2.1"/>
<path d="M58.2739 54.4443C58.1368 53.2787 57.9681 51.822 58.35 50.6763" fill="none" opacity="1" stroke="#000000" stroke-linecap="round" stroke-linejoin="miter" stroke-width="2.1"/>
<path d="M55.2678 55.9793C56.1074 55.9513 57.0403 55.751 57.8559 55.751" fill="none" opacity="1" stroke="#000000" stroke-linecap="round" stroke-linejoin="miter" stroke-width="2.1"/>
<path d="M61.2811 55.751C61.9057 55.751 62.4732 55.4084 63.108 55.4084" fill="none" opacity="1" stroke="#000000" stroke-linecap="round" stroke-linejoin="miter" stroke-width="2.1"/>
<path d="M63.108 55.4084C63.108 54.4739 62.8416 53.5504 62.8416 52.7061" fill="none" opacity="1" stroke="#000000" stroke-linecap="round" stroke-linejoin="miter" stroke-width="2.1"/>
<path d="M4.23783 46.7485C4.92216 45.3798 5.74458 44.3511 5.83639 42.7902C6.03432 39.4252 4.38183 34.0903 6.67372 31.1436C8.30631 29.0445 8.57534 34.3766 8.88125 34.8355C9.08734 35.1446 9.91128 34.9211 10.0231 35.3683C10.2051 36.0965 10.0012 36.9012 10.2514 37.652C10.9012 39.6012 12.8655 44.3481 12.1925 46.3679" fill="none" opacity="1" stroke="#000000" stroke-linecap="round" stroke-linejoin="miter" stroke-width="2.1"/>
<path d="M11.8881 41.0394C12.5702 41.0394 13.39 41.2955 13.9433 41.5722" fill="none" opacity="1" stroke="#000000" stroke-linecap="round" stroke-linejoin="miter" stroke-width="2.1"/>
<path d="M3.09709 42.6885C4.39451 42.3426 5.53908 41.7662 6.82705 41.5087" fill="none" opacity="1" stroke="#000000" stroke-linecap="round" stroke-linejoin="miter" stroke-width="2.1"/>
<path d="M7.13154 41.0519C7.13154 40.0714 7.35463 39.1531 7.47408 38.1974C7.47994 38.1505 7.4897 37.9099 7.58826 37.969C8.32521 38.4112 8.02514 39.7546 8.19724 40.443C8.46327 41.507 9.19807 42.4888 9.4913 43.5639C9.85452 44.8957 9.83385 46.053 9.83385 47.37C9.83385 47.8485 9.90362 50.4085 9.98608 50.491C10.0816 50.5865 10.6906 50.4529 10.8234 50.4529C12.3427 50.4529 13.2644 49.6655 12.8406 48.0551C12.5769 47.053 12.3839 46.3645 12.3839 45.3528" fill="none" opacity="1" stroke="#000000" stroke-linecap="round" stroke-linejoin="miter" stroke-width="2.1"/>
<path d="M3.97249 47.979C3.61195 48.3395 1.54811 51.3481 2.83067 51.8612C5.62533 52.9791 6.10389 45.7181 6.10389 44.858" fill="none" opacity="1" stroke="#000000" stroke-linecap="round" stroke-linejoin="miter" stroke-width="2.1"/>
<path d="M6.48451 49.3872C7.25501 49.1304 8.16793 48.588 8.99651 48.588" fill="none" opacity="1" stroke="#000000" stroke-linecap="round" stroke-linejoin="miter" stroke-width="2.1"/>
<path d="M7.39796 45.6192L7.47408 45.5812L7.5502 45.5431L7.96887 45.3528L8.15917 45.2386L8.31142 45.1625L8.34948 45.1244L8.38754 45.0864L8.38754 45.0864" fill="none" opacity="1" stroke="#000000" stroke-linecap="round" stroke-linejoin="miter" stroke-width="2.1"/>
<path d="M6.31283 53.7964C6.17571 52.6307 6.00708 51.1741 6.38896 50.0283" fill="none" opacity="1" stroke="#000000" stroke-linecap="round" stroke-linejoin="miter" stroke-width="2.1"/>
<path d="M3.30676 55.3314C4.14631 55.3034 5.07925 55.103 5.89489 55.103" fill="none" opacity="1" stroke="#000000" stroke-linecap="round" stroke-linejoin="miter" stroke-width="2.1"/>
<path d="M9.32 55.103C9.94464 55.103 10.5122 54.7604 11.1469 54.7604" fill="none" opacity="1" stroke="#000000" stroke-linecap="round" stroke-linejoin="miter" stroke-width="2.1"/>
<path d="M11.1469 54.7604C11.1469 53.8259 10.8805 52.9024 10.8805 52.0581" fill="none" opacity="1" stroke="#000000" stroke-linecap="round" stroke-linejoin="miter" stroke-width="2.1"/>
<path d="M27.2762 54.2146C27.2762 52.6623 26.7518 51.2779 26.7518 49.6374" fill="none" opacity="1" stroke="#000000" stroke-linecap="round" stroke-linejoin="miter" stroke-width="2.1"/>
</g>
</svg>
