<?xml version="1.0" encoding="UTF-8" standalone="no"?>
<!DOCTYPE svg PUBLIC "-//W3C//DTD SVG 1.1//EN" "http://www.w3.org/Graphics/SVG/1.1/DTD/svg11.dtd">
<!-- Created with Vectornator (http://vectornator.io/) -->
<svg height="100%" stroke-miterlimit="10" style="fill-rule:nonzero;clip-rule:evenodd;stroke-linecap:round;stroke-linejoin:round;" version="1.1" viewBox="0 0 111.374 89.8321" width="100%" xml:space="preserve" xmlns="http://www.w3.org/2000/svg" xmlns:vectornator="http://vectornator.io" xmlns:xlink="http://www.w3.org/1999/xlink">
<defs/>
<g id="Слой-1" vectornator:layerName="Слой 1">
<path d="M42.7892 7.79695C42.5283 8.30555 39.1031 8.09909 38.5095 8.09909C34.7252 8.09909 30.8382 7.82875 27.1918 9.09162C25.678 9.61589 24.2354 10.3338 22.807 11.0592C18.4301 13.2817 11.5597 16.9151 9.34276 21.7591C8.78759 22.9722 9.08601 24.6617 9.08601 25.947C9.08601 26.5136 8.93983 27.5364 9.15798 28.0994C9.65284 29.3765 14.0012 29.4324 15.7283 29.5844C17.8211 29.7685 19.9208 29.8633 22.0168 30.0058C26.977 30.3431 31.8803 30.8425 36.8191 31.3884C38.6213 31.5877 40.5856 31.9303 42.4094 31.8179C44.6967 31.6769 46.5477 30.2035 48.6726 29.5069C53.6797 27.8655 57.8711 30.0151 62.691 30.9046C65.9372 31.5037 69.4593 31.3987 72.7541 31.2708C74.3252 31.2098 75.8673 30.9308 77.1097 29.8889C78.3973 28.8093 78.7806 27.1691 80.6717 26.928C85.2377 26.346 93.038 27.2952 95.936 22.5688C96.7758 21.1991 96.7268 19.5793 96.7376 18.0233C96.7485 16.4439 97.1926 13.9258 96.1189 12.5618C94.6589 10.7071 89.1459 9.55996 86.8657 8.72347C82.761 7.21765 77.4172 4.37915 72.8775 4.80103C71.9046 4.89144 71.4148 5.64108 70.5581 5.84119C66.1117 6.87988 61.2545 8.09498 56.6943 8.1424C53.2873 8.17783 49.8845 7.97854 46.5037 7.57895C45.4763 7.45752 43.2658 6.86779 42.7892 7.79695Z" fill="none" opacity="1" stroke="#000000" stroke-linecap="round" stroke-linejoin="miter" stroke-width="4.1"/>
<path d="M18.4634 24.4127C18.8415 23.3992 19.4054 22.4604 19.9775 21.5423C22.8955 16.8591 27.1856 23.7687 31.1137 22.0235C34.6417 20.4561 37.328 17.312 41.0894 16.1282C44.7937 14.9623 49.5203 15.9732 53.2299 15.8C56.2768 15.6577 59.4208 15.6995 62.4465 15.3232C63.993 15.1309 65.2807 14.3038 66.9131 14.1616C70.9619 13.809 75.9782 13.4421 79.9898 14.4111C80.6675 14.5748 83.3218 15.1553 83.3616 16.1588C83.4203 17.6371 80.829 18.8497 79.6911 19.1898C76.0279 20.2849 71.9699 19.9057 68.1992 20.3413C66.1583 20.577 64.17 21.0844 62.1093 21.1298C60.2834 21.17 58.0839 20.7944 56.3351 21.3908C53.1231 22.486 50.3879 24.18 46.9706 24.8024C41.0563 25.8794 34.839 25.284 28.8442 25.9874C26.6066 26.25 24.0136 26.7339 21.786 26.1567C19.703 25.6168 18.0668 23.5321 15.7114 25.1118" fill="none" opacity="1" stroke="#000000" stroke-linecap="round" stroke-linejoin="miter" stroke-width="4.1"/>
<path d="M9.43589 32.5633C11.3392 33.314 12.7255 35.956 13.3873 37.6844C14.2488 39.9346 15.0128 42.2258 15.6504 44.5493C18.4965 54.9203 17.9664 65.8608 17.4899 76.4473" fill="none" opacity="1" stroke="#000000" stroke-linecap="round" stroke-linejoin="miter" stroke-width="4.1"/>
<path d="M96.2479 25.7408C96.2479 34.1911 93.4823 43.1706 95.3943 51.6013C95.8203 53.4798 96.6963 55.3305 97.3954 57.1206C98.1958 59.1701 98.9314 61.2406 99.6786 63.3101C99.8378 63.751 100.074 65.3682 100.677 65.5666" fill="none" opacity="1" stroke="#000000" stroke-linecap="round" stroke-linejoin="miter" stroke-width="4.1"/>
<path d="M20.8519 80.2831C35.2766 80.2831 49.7014 80.2831 64.1261 80.2831C70.3456 80.2831 76.6616 80.5595 82.8787 80.2831C88.145 80.0489 94.7174 78.734 98.1869 74.3707C98.716 73.7053 100.082 72.2859 100.122 71.3589" fill="none" opacity="1" stroke="#000000" stroke-linecap="round" stroke-linejoin="miter" stroke-width="4.1"/>
<path d="M22.9282 49.922C22.9282 50.2361 22.9242 49.6932 23.2585 49.196C23.5493 48.7634 23.9086 48.3807 24.2495 47.9864C25.4805 46.5621 26.8495 45.2632 28.1399 43.8926C31.0923 40.7565 34.0098 37.3465 36.8013 34.0578" fill="none" opacity="1" stroke="#000000" stroke-linecap="round" stroke-linejoin="miter" stroke-width="4.1"/>
<path d="M49.6438 37.997C49.5677 38.0058 49.4765 37.9771 49.4154 38.0235C48.0252 39.0795 46.6134 40.1151 45.3166 41.2838C44.1286 42.3544 43.0732 43.5638 41.9764 44.7275C37.9897 48.9577 34.6296 53.3578 32.0797 58.5717C31.7286 59.2896 30.4058 61.2779 30.4058 62.2154" fill="none" opacity="1" stroke="#000000" stroke-linecap="round" stroke-linejoin="miter" stroke-width="4.1"/>
<path d="M32.2306 68.4286C32.7416 66.299 34.4285 64.6284 35.7375 62.8724C37.7448 60.1796 40.1155 57.7737 42.4337 55.3433C47.9861 49.522 53.9064 43.5729 61.156 39.9158" fill="none" opacity="1" stroke="#000000" stroke-linecap="round" stroke-linejoin="miter" stroke-width="4.1"/>
<path d="M73.539 45.1982C65.5145 52.6575 60.3915 63.4228 49.6037 67.0908" fill="none" opacity="1" stroke="#000000" stroke-linecap="round" stroke-linejoin="miter" stroke-width="4.1"/>
<path d="M69.0952 72.8432C72.5757 72.8432 76.0563 72.8432 79.5368 72.8432C82.4285 72.8432 85.7331 73.3628 88.5804 72.7494C90.5035 72.3352 92.9625 65.2458 92.9454 63.4809C92.933 62.2026 90.4775 59.112 89.8634 57.7764C88.0386 53.8074 87.3611 50.0592 86.3532 45.8352C85.8823 43.8616 85.2594 41.7438 85.6261 39.6989" fill="none" opacity="1" stroke="#000000" stroke-linecap="round" stroke-linejoin="miter" stroke-width="4.1"/>
<path d="M43.1173 19.7592C42.6383 21.121 40.2617 21.4601 39.0629 21.8883C38.1556 22.2123 37.5333 22.5803 37.5818 22.6288C37.6958 22.7427 40.5358 21.5463 40.8031 21.444C41.8264 21.0521 42.5698 20.6928 42.5434 20.6664C42.5149 20.6379 37.9354 21.555 37.4337 21.555C37.1352 21.555 37.9369 21.2283 38.2113 21.1107C38.8489 20.8374 38.9253 20.8469 39.5813 20.7034C40.5201 20.4981 41.3084 20.2376 42.1361 19.7778C42.4141 19.6233 42.7079 19.5197 42.9877 19.3705C43.1193 19.3003 43.4527 19.0478 43.395 19.1853C43.3128 19.3813 43.1878 19.5588 43.1173 19.7592Z" fill="none" opacity="1" stroke="#000000" stroke-linecap="round" stroke-linejoin="miter" stroke-width="4.1"/>
<path d="M44.0615 20.148C45.8823 20.148 47.4539 19.2466 49.0971 18.741C50.5208 18.303 52.3936 18.3708 53.8735 18.3708" fill="none" opacity="1" stroke="#000000" stroke-linecap="round" stroke-linejoin="miter" stroke-width="4.1"/>
<path d="M45.4315 19.1113C46.2602 18.2827 48.5799 18.6028 49.6525 18.4078" fill="none" opacity="1" stroke="#000000" stroke-linecap="round" stroke-linejoin="miter" stroke-width="4.1"/>
<path d="M58.0205 18.5559C59.6497 18.0128 61.7854 17.7783 63.5004 17.7783C63.5057 17.7783 63.3835 18.0208 62.5377 18.3708C62.1223 18.5426 60.9805 18.7088 60.7604 18.741C59.237 18.9637 57.3395 18.9877 55.7626 18.9384C55.1741 18.92 54.6383 18.7903 54.0593 18.7903C53.8274 18.7903 53.1998 19.1152 53.4299 19.0865C55.9607 18.7701 58.412 18.6299 60.9826 18.6299C61.6367 18.6299 62.2924 18.667 62.945 18.667C63.2654 18.667 64.0972 18.1812 63.8707 18.4078C63.8117 18.4667 63.4252 18.8145 63.7226 18.9632C63.8735 19.0386 68.4859 18.8698 68.8692 18.8151C69.4007 18.7391 73.8308 17.7503 73.8308 17.1859C73.8308 17.1798 72.8283 17.585 71.8684 17.6672C70.6603 17.7708 69.6359 17.4414 68.7211 17.371C68.7124 17.3704 67.2103 17.2646 67.2401 17.2229C68.8997 14.8995 72.3837 16.4824 74.7194 16.4824C75.3764 16.4824 78.2822 16.1079 78.0888 17.0748C78.0758 17.1402 78.8178 16.8145 78.7183 16.9637C78.4155 17.4179 76.1002 16.951 75.5714 16.9637C72.9736 17.0266 70.3652 16.9321 67.7706 17.087C66.8456 17.1423 65.8403 17.3511 64.9196 17.3092C64.7203 17.3001 64.6536 16.9389 64.5123 16.9389C63.7482 16.9389 62.7479 17.4914 62.0315 17.7165C60.0032 18.354 58.0135 18.9543 56.0332 19.7159C54.4811 20.3129 52.7017 20.0582 51.1087 20.4565C50.0929 20.7104 48.9204 20.981 47.9985 21.4932C47.3758 21.8391 46.5116 22.735 45.8509 22.9002C43.4523 23.4999 40.6833 22.6666 38.3716 22.1227C36.6916 21.7274 35.1193 22.2885 33.4841 22.4929C31.3406 22.7609 29.1504 22.7792 27.0044 22.9743C25.6482 23.0976 23.5602 23.0105 22.5613 22.0116C22.09 21.5403 20.8657 22.8262 22.0059 22.8262" fill="none" opacity="1" stroke="#000000" stroke-linecap="round" stroke-linejoin="miter" stroke-width="4.1"/>
<path d="M16.0224 24.3382C16.6889 23.2719 18.3763 20.5615 19.9842 20.5615" fill="none" opacity="1" stroke="#000000" stroke-linecap="round" stroke-linejoin="miter" stroke-width="4.1"/>
<path d="M19.4314 21.1259C20.0175 20.7351 20.4627 19.711 21.1716 19.5337C24.001 18.8264 26.9834 21.6994 29.5766 22.3477C30.7566 22.6427 32.5259 21.5702 33.7977 21.5702" fill="none" opacity="1" stroke="#000000" stroke-linecap="round" stroke-linejoin="miter" stroke-width="4.1"/>
<path d="M17.5437 21.4221C19.3107 19.3606 21.5983 18.989 24.2825 19.7559" fill="none" opacity="1" stroke="#000000" stroke-linecap="round" stroke-linejoin="miter" stroke-width="4.1"/>
</g>
</svg>
