<?xml version="1.0" encoding="UTF-8" standalone="no"?>
<!DOCTYPE svg PUBLIC "-//W3C//DTD SVG 1.1//EN" "http://www.w3.org/Graphics/SVG/1.1/DTD/svg11.dtd">
<!-- Created with Vectornator (http://vectornator.io/) -->
<svg height="100%" stroke-miterlimit="10" style="fill-rule:nonzero;clip-rule:evenodd;stroke-linecap:round;stroke-linejoin:round;" version="1.1" viewBox="0 0 64.4951 95.5567" width="100%" xml:space="preserve" xmlns="http://www.w3.org/2000/svg" xmlns:vectornator="http://vectornator.io" xmlns:xlink="http://www.w3.org/1999/xlink">
<defs/>
<clipPath id="ArtboardFrame">
<rect height="95.5567" width="64.4951" x="0" y="0"/>
</clipPath>
<g clip-path="url(#ArtboardFrame)" id="Слой-1" vectornator:layerName="Слой 1">
<path d="M141.219 47.3576C141.219 46.983 141.219 48.1069 141.219 48.4815C141.219 49.0017 141.219 49.5219 141.219 50.0421C141.219 52.0371 141.276 53.8014 141.895 55.7278C143.602 61.0352 146.252 66.7254 152.082 68.3779C157.446 69.8984 155.919 57.8874 155.846 55.8045C155.79 54.171 155.731 52.4707 155.731 50.8536C155.731 50.7133 155.769 50.6609 155.615 50.6609" fill="none" opacity="1" stroke="#000000" stroke-linecap="round" stroke-linejoin="miter" stroke-width="4.1"/>
<path d="M144.042 70.8517C136.426 70.8517 134.04 71.3951 133.078 79.3946C132.743 82.1814 133.559 84.6587 133.818 87.3853C133.853 87.7517 133.702 89.5454 134.271 89.5454" fill="none" opacity="1" stroke="#000000" stroke-linecap="round" stroke-linejoin="miter" stroke-width="4.1"/>
<path d="M128.283 94.7319C128.712 94.7319 133.381 93.8215 133.381 92.964" fill="none" opacity="1" stroke="#000000" stroke-linecap="round" stroke-linejoin="miter" stroke-width="4.1"/>
<path d="M160.245 69.1781C162.044 69.5657 163.925 69.631 165.623 70.4344C168.714 71.8973 172.648 78.9191 173.786 82.2216C174.109 83.1604 174.7 85.4238 173.907 86.2275C173.331 86.8107 172.281 86.8052 171.807 87.481C171.483 87.9415 171.65 91.31 171.65 90.1845" fill="none" opacity="1" stroke="#000000" stroke-linecap="round" stroke-linejoin="miter" stroke-width="4.1"/>
<path d="M172.461 92.6055C172.75 93.1074 174.784 93.4358 175.356 93.6413C176.149 93.926 177.317 95.0054 178.152 95.0054" fill="none" opacity="1" stroke="#000000" stroke-linecap="round" stroke-linejoin="miter" stroke-width="4.1"/>
<path d="M143.773 52.987C143.91 53.2917 146.071 53.0871 146.4 53.0871C149.056 53.0871 151.625 54.0972 154.196 54.0972" fill="none" opacity="1" stroke="#000000" stroke-linecap="round" stroke-linejoin="miter" stroke-width="4.1"/>
<path d="M141.927 40.0538C144.4 40.8669 146.619 41.6544 149.297 41.286C150.137 41.1705 151.508 39.197 152.289 39.3964C152.352 39.4125 152.312 39.5246 152.312 39.5893C152.312 40.4034 154.083 44.4983 155.099 44.6488" fill="none" opacity="1" stroke="#000000" stroke-linecap="round" stroke-linejoin="miter" stroke-width="4.1"/>
<path d="M141.453 31.4434C142.397 32.0869 148.63 31.337 149.189 30.2419C149.987 28.6782 149.383 26.5168 149.587 24.8283C149.752 23.4559 150.645 22.4022 151.009 21.0991C151.861 18.0537 151.459 9.85779 149.03 7.72873C146.625 5.62089 144.662 8.7191 143.262 10.3259C139.914 14.1702 138.338 18.4515 138.193 23.5751C138.166 24.5151 137.785 26.6214 138.754 27.2755" fill="none" opacity="1" stroke="#000000" stroke-linecap="round" stroke-linejoin="miter" stroke-width="4.1"/>
<path d="M143.987 19.859L144.047 19.859L144.45 19.859L144.693 19.859L144.918 19.8604L145.106 19.8908L145.251 19.9473L145.366 19.9819L145.462 20.0094L145.509 20.0301L145.543 20.0301L145.59 20.0301L145.615 20.0301L145.615 20.0301" fill="none" opacity="1" stroke="#000000" stroke-linecap="round" stroke-linejoin="miter" stroke-width="4.1"/>
<path d="M142.493 14.9606C144.467 14.9606 146.438 15.1617 148.399 15.1617C148.642 15.1617 149.977 15.3297 149.988 15.0016" fill="none" opacity="1" stroke="#000000" stroke-linecap="round" stroke-linejoin="miter" stroke-width="4.1"/>
<path d="M142.647 25.8356L142.57 25.8356L142.256 25.8356L142.031 25.8356L141.778 25.8356L141.539 25.8356L141.316 25.8356L141.135 25.8356L141.016 25.8356L140.953 25.8356L140.953 25.8356" fill="none" opacity="1" stroke="#000000" stroke-linecap="round" stroke-linejoin="miter" stroke-width="4.1"/>
<path d="M101.735 44.6881C108.152 44.6881 114.754 45.1564 121.163 44.6443C123.493 44.4582 125.943 44.9237 128.248 44.5608C128.618 44.5025 130.303 44.6553 130.197 44.2059" fill="none" opacity="1" stroke="#000000" stroke-linecap="round" stroke-linejoin="miter" stroke-width="4.1"/>
<path d="M162.233 42.7025C171.738 42.7016 181.242 42.7025 190.747 42.7025C191.321 42.7025 198.33 42.8517 198.377 42.2396" fill="none" opacity="1" stroke="#000000" stroke-linecap="round" stroke-linejoin="miter" stroke-width="4.1"/>
<path d="M102.456 55.4254C102.394 55.5745 102.771 55.4943 102.849 55.4943C103.884 55.4943 104.919 55.4943 105.954 55.4943C106.797 55.4943 107.64 55.4943 108.484 55.4943C113.646 55.4943 118.81 55.5411 123.972 55.4943C126.099 55.475 128.217 55.3194 130.347 55.3194C130.621 55.3194 130.723 55.421 130.723 55.1269" fill="none" opacity="1" stroke="#000000" stroke-linecap="round" stroke-linejoin="miter" stroke-width="4.1"/>
<path d="M161.852 54.6687C162.096 54.9442 161.881 54.7359 162.747 54.7359C164.614 54.7359 166.481 54.7359 168.348 54.7359C176.22 54.7359 184.093 54.7359 191.966 54.7359C194.465 54.7359 196.964 54.7359 199.462 54.7359C199.588 54.7359 203.951 54.8472 202.923 54.4817" fill="none" opacity="1" stroke="#000000" stroke-linecap="round" stroke-linejoin="miter" stroke-width="4.1"/>
<path d="M100.79 66.7181C101.269 67.2446 102.212 66.7853 102.924 66.7853C103.881 66.7853 104.837 66.7853 105.794 66.7853C109.715 66.7853 113.637 66.7853 117.558 66.7853C119.835 66.7853 122.112 66.7853 124.389 66.7853C124.509 66.7853 127.961 66.862 127.892 66.6212" fill="none" opacity="1" stroke="#000000" stroke-linecap="round" stroke-linejoin="miter" stroke-width="4.1"/>
<path d="M163.4 64.008C170.864 64.0074 178.617 64.6713 186.057 64.008C190.164 63.6418 194.239 62.2556 198.403 62.2556" fill="none" opacity="1" stroke="#000000" stroke-linecap="round" stroke-linejoin="miter" stroke-width="4.1"/>
<path d="M192.799 37.3829C196.22 37.383 200.185 36.8514 203.346 38.5056C210.599 42.3013 207.017 57.1304 206.21 62.8526C205.781 65.8975 205.651 66.8791 205.344 69.9887C204.889 74.5929 203.56 80.3323 204.394 84.9942C204.642 86.3787 208.851 85.8149 209.204 84.7239" fill="none" opacity="1" stroke="#000000" stroke-linecap="round" stroke-linejoin="miter" stroke-width="4.1"/>
<path d="M157.206 38.0671C159.461 37.0928 161.541 35.806 163.834 34.8995C166.42 33.8772 171.748 30.5615 174.771 31.893C176.078 32.4689 175.37 35.3446 175.509 36.4105C175.968 39.9555 177.558 43.173 178.158 46.6687" fill="none" opacity="1" stroke="#000000" stroke-linecap="round" stroke-linejoin="miter" stroke-width="4.1"/>
<path d="M135.957 41.3185C134.756 39.0011 132.388 37.5221 130.452 35.8716C129.161 34.7708 127.968 33.5585 126.678 32.457C126.144 32.0017 125.101 31.2533 124.474 30.8651C120.842 28.6175 121.258 33.2934 120.253 35.549C119.147 38.0334 117.538 40.0594 115.905 42.1925" fill="none" opacity="1" stroke="#000000" stroke-linecap="round" stroke-linejoin="miter" stroke-width="4.1"/>
<path d="M176.568 76.0325C176.568 74.0879 176.602 72.4711 177.426 70.682C177.489 70.5443 177.994 69.3219 178.139 69.4051" fill="none" opacity="1" stroke="#000000" stroke-linecap="round" stroke-linejoin="miter" stroke-width="4.1"/>
<path d="M182.32 75.7821C182.32 76.1397 182.32 75.0669 182.32 74.7093C182.32 74.3525 182.312 73.9957 182.32 73.639C182.344 72.5649 183.117 69.9994 184.454 69.7486" fill="none" opacity="1" stroke="#000000" stroke-linecap="round" stroke-linejoin="miter" stroke-width="4.1"/>
<path d="M191.135 75.6547C190.787 74.4063 192.882 68.1454 194.494 68.1454" fill="none" opacity="1" stroke="#000000" stroke-linecap="round" stroke-linejoin="miter" stroke-width="4.1"/>
<path d="M104.434 73.5522C104.434 75.5987 105.216 77.4605 105.216 79.5735" fill="none" opacity="1" stroke="#000000" stroke-linecap="round" stroke-linejoin="miter" stroke-width="4.1"/>
<path d="M112.4 73.0343C112.934 73.7952 112.452 76.7248 112.452 77.7529" fill="none" opacity="1" stroke="#000000" stroke-linecap="round" stroke-linejoin="miter" stroke-width="4.1"/>
<path d="M120.758 72.6956C120.758 73.4434 121.991 78.7936 120.937 78.4684" fill="none" opacity="1" stroke="#000000" stroke-linecap="round" stroke-linejoin="miter" stroke-width="4.1"/>
<path d="M102.796 83.0337C103.139 82.6703 106.141 82.9767 106.578 82.9767C107.86 82.9767 116.633 83.603 117.656 82.8665C117.902 82.6892 118.263 82.8556 118.567 82.8649C119.298 82.8874 124.837 83.4889 122.966 81.9023" fill="none" opacity="1" stroke="#000000" stroke-linecap="round" stroke-linejoin="miter" stroke-width="4.1"/>
<path d="M177.873 81.1064C181.196 81.1064 184.749 81.4883 187.981 80.6106C188.627 80.4352 190.771 80.2047 191.013 79.4765" fill="none" opacity="1" stroke="#000000" stroke-linecap="round" stroke-linejoin="miter" stroke-width="4.1"/>
<path d="M139.064 82.4591C140.174 81.8543 144.084 82.4018 145.124 82.4018C148.461 82.4018 151.799 82.4018 155.136 82.4018C155.491 82.4018 159.694 82.6832 159.578 82.0865" fill="none" opacity="1" stroke="#000000" stroke-linecap="round" stroke-linejoin="miter" stroke-width="4.1"/>
<path d="M104.193 38.8311C103.966 38.35 101.001 39.1102 100.744 39.1937C98.8986 39.7958 96.7712 41.1776 96.6145 43.2989C96.4549 45.4601 96.6581 47.6358 96.4845 49.803C96.2421 52.8289 95.6769 55.8196 95.6276 58.861C95.5203 65.4755 96.2046 72.3284 95.5937 78.9202C95.3654 81.3833 94.6998 84.5422 93.371 86.6923C92.2488 88.5081 89.8362 87.0084 89.2727 85.6117" fill="none" opacity="1" stroke="#000000" stroke-linecap="round" stroke-linejoin="miter" stroke-width="4.1"/>
<path d="M270.938 26.0636C271.901 24.0224 274.221 22.9118 276.152 21.7442C278.177 20.5206 280.286 19.4058 282.499 18.5707C290.078 15.7107 294.902 14.9069 303.013 14.3409C311.027 13.7816 321.444 13.0378 328.986 16.575C332.951 18.4349 338.342 23.335 341.048 26.5635C347.851 34.679 351.506 44.2698 353.638 54.5355C354.263 57.5462 354.617 60.6114 354.902 63.673C355.187 66.729 355.539 72.65 354.076 75.7618C352.111 79.9386 347.208 82.0683 343.358 83.6472C340.017 85.0175 336.557 86.1113 333.059 87.0097C321.086 90.0852 307.992 91.4459 295.638 90.6623C292.539 90.4657 289.439 90.0218 286.43 89.2542C277.896 87.0769 268.782 81.0838 271.994 71.1992C273.876 65.41 278.268 60.5945 282.087 56.0421C285.56 51.9032 289.161 47.8856 292.859 43.9498" fill="none" opacity="1" stroke="#000000" stroke-linecap="round" stroke-linejoin="miter" stroke-width="4.1"/>
<path d="M280.533 56.8227C280.533 52.7863 281.756 42.6005 278.559 39.2713C277.622 38.2964 268.555 38.2659 268.555 39.8138" fill="none" opacity="1" stroke="#000000" stroke-linecap="round" stroke-linejoin="miter" stroke-width="4.1"/>
<path d="M267.22 25.6581C267.22 18.96 258.438 18.3617 253.737 20.5538C247.947 23.2539 245.262 29.9764 245.427 35.9151C245.497 38.4587 245.701 42.2728 247.497 44.3382C248.86 45.9066 253.184 45.0553 254.939 45.0553C257.698 45.0553 261.613 45.7738 264.307 45.0051C266.125 44.4863 266.211 39.6886 265.994 38.4576" fill="none" opacity="1" stroke="#000000" stroke-linecap="round" stroke-linejoin="miter" stroke-width="4.1"/>
<path d="M249.045 38.2577C251.136 38.2577 253.228 38.2577 255.319 38.2577" fill="none" opacity="1" stroke="#000000" stroke-linecap="round" stroke-linejoin="miter" stroke-width="4.1"/>
<path d="M255.791 28.1582C255.333 28.172 256.678 27.873 257.137 27.873C257.976 27.873 258.526 27.9402 259.284 28.2901C259.564 28.4197 260.567 29.6334 259.873 29.8773" fill="none" opacity="1" stroke="#000000" stroke-linecap="round" stroke-linejoin="miter" stroke-width="4.1"/>
<path d="M340.079 67.5525C339.673 67.1181 339.958 69.0033 339.983 69.1359C340.233 70.4485 342.258 73.2495 343.759 71.4939" fill="none" opacity="1" stroke="#000000" stroke-linecap="round" stroke-linejoin="miter" stroke-width="4.1"/>
<path d="M249.15 22.308C249.15 21.0065 248.609 19.7302 248.801 18.4158C249.18 15.8332 252.637 13.5129 254.173 11.6109C255.201 10.3376 256.915 7.93424 258.821 8.09755C258.934 8.10725 258.486 8.92285 258.482 8.93367C258.337 9.32328 258.061 11.7787 258.327 11.8001C259.313 11.8797 260.831 10.1052 262.324 10.3482C263.266 10.5016 261.602 12.2122 263.245 12.1068C263.6 12.084 263.956 12.0533 264.308 11.9939C264.614 11.9421 268.431 10.838 268.511 10.8804C268.69 10.9761 268.241 11.1862 268.129 11.3557C268.031 11.5033 267.466 12.6321 267.793 12.7869C268.289 13.0218 272.148 12.7843 272.182 12.868C272.471 13.5615 270.543 16.563 271.453 17.8701C271.919 18.5393 274.397 18.3853 274.447 18.4731C274.872 19.2189 272.915 23.3622 272.503 24.0108" fill="none" opacity="1" stroke="#000000" stroke-linecap="round" stroke-linejoin="miter" stroke-width="4.1"/>
<path d="M297.61 31.1538C296.69 31.1538 295.779 31.0753 294.925 31.488C293.203 32.3205 290.703 35.3261 293.151 36.7836C297.055 39.1087 306.647 37.5535 306.396 44.2313C306.294 46.9552 303.724 49.1089 302.043 50.9693C298.721 54.6453 295.229 58.1415 291.42 61.316" fill="none" opacity="1" stroke="#000000" stroke-linecap="round" stroke-linejoin="miter" stroke-width="4.1"/>
<path d="M266.656 63.6579C267.477 64.0114 271.908 66.0626 273.076 65.2212" fill="none" opacity="1" stroke="#000000" stroke-linecap="round" stroke-linejoin="miter" stroke-width="4.1"/>
<path d="M343.595 60.826C343.835 60.768 344.084 60.1818 344.178 59.9835" fill="none" opacity="1" stroke="#000000" stroke-linecap="round" stroke-linejoin="miter" stroke-width="1.1"/>
<path d="M337.987 59.9227C338.132 59.6486 338.007 58.9097 338.007 58.5937" fill="none" opacity="1" stroke="#000000" stroke-linecap="round" stroke-linejoin="miter" stroke-width="1.1"/>
<path d="M335.084 62.915C334.539 62.915 334.125 62.8375 333.799 62.358" fill="none" opacity="1" stroke="#000000" stroke-linecap="round" stroke-linejoin="miter" stroke-width="1.1"/>
<path d="M333.055 69.9474L333.114 69.9474L333.264 69.9474L333.355 69.9474L333.432 69.9334L333.491 69.9189L333.536 69.9048L333.567 69.8772L333.612 69.8583L333.678 69.8443L333.753 69.8352L333.822 69.8352L333.891 69.8352L333.891 69.8352" fill="none" opacity="1" stroke="#000000" stroke-linecap="round" stroke-linejoin="miter" stroke-width="1.1"/>
</g>
<g id="Слой-2" vectornator:layerName="Слой 2">
<path d="M23.1419 23.9728C22.2835 24.3625 23.52 28.0763 23.8059 28.5093C25.5953 31.2194 28.4079 32.6885 31.396 33.708C31.8532 33.864 33.6754 34.7596 34.1114 34.0502C35.9865 30.9995 35.4697 17.3235 32.478 15.2336C30.1583 13.6131 24.342 14.9989 23.8472 18.1675" fill="none" opacity="1" stroke="#000000" stroke-linecap="round" stroke-linejoin="miter" stroke-width="4.1"/>
<path d="M30.2137 58.883C30.2137 53.4463 31.1194 47.2747 30.1428 41.9448C29.9151 40.7022 26.0385 39.5113 25.7433 39.9981" fill="none" opacity="1" stroke="#000000" stroke-linecap="round" stroke-linejoin="miter" stroke-width="4.1"/>
<path d="M7.64539 55.893C9.84952 55.893 14.1597 56.7643 16.2028 55.8568C17.8348 55.132 16.8822 48.0899 19.726 46.639C20.6032 46.1915 22.3431 47.2873 23.2684 47.3836" fill="none" opacity="1" stroke="#000000" stroke-linecap="round" stroke-linejoin="miter" stroke-width="4.1"/>
<path d="M40.761 46.6925C41.6426 46.0827 44.237 46.4444 45.1722 47.0317C47.3243 48.383 45.1546 51.5071 46.6587 52.9752C48.1554 54.4362 53.8034 53.8841 54.049 51.1317" fill="none" opacity="1" stroke="#000000" stroke-linecap="round" stroke-linejoin="miter" stroke-width="4.1"/>
<path d="M16.8464 90.6389C17.3837 90.1416 16.6665 82.3143 17.0606 80.7028C18.5547 74.5928 23.2213 67.2893 28.4642 63.6123" fill="none" opacity="1" stroke="#000000" stroke-linecap="round" stroke-linejoin="miter" stroke-width="4.1"/>
<path d="M42.3864 90.7822C42.3864 83.8852 43.3232 76.3852 39.4815 70.2299C37.3383 66.796 32.3388 68.683 32.3388 64.2008" fill="none" opacity="1" stroke="#000000" stroke-linecap="round" stroke-linejoin="miter" stroke-width="4.1"/>
<path d="M28.6986 23.0581L28.8514 23.0581L29.303 23.0581L29.5854 23.0581L29.8023 23.0581L30.0018 23.0429L30.1653 22.9934L30.2962 22.9592L30.4065 22.9592L30.4606 22.9592L30.4641 22.9263L30.4641 22.8786L30.4641 22.8169L30.4641 22.8169" fill="none" opacity="1" stroke="#000000" stroke-linecap="round" stroke-linejoin="miter" stroke-width="4.1"/>
<path d="M30.7907 27.603L30.9308 27.603L31.0255 27.603L31.1322 27.603L31.3804 27.603L31.4299 27.603L31.5287 27.603L31.6411 27.603L31.7568 27.603L31.8798 27.603L32.0362 27.5834L32.1973 27.5339L32.3816 27.5041L32.5999 27.5041L32.9103 27.5041L32.9103 27.5041" fill="none" opacity="1" stroke="#000000" stroke-linecap="round" stroke-linejoin="miter" stroke-width="4.1"/>
<path d="M18.1282 16.6907C23.7006 16.6907 29.3467 16.9463 34.9128 16.6286C35.2308 16.6104 39.3734 16.3833 39.3734 15.9925" fill="none" opacity="1" stroke="#000000" stroke-linecap="round" stroke-linejoin="miter" stroke-width="4.1"/>
<path d="M21.7791 16.6964C21.7791 15.5426 21.4075 9.30171 21.9787 8.70921C22.7667 7.89188 25.2572 8.38821 26.2523 8.38821C29.6976 8.38821 33.8374 8.4836 33.8374 13.1043" fill="none" opacity="1" stroke="#000000" stroke-linecap="round" stroke-linejoin="miter" stroke-width="4.1"/>
<path d="M58.2125 47.8928C57.6023 46.8256 56.6509 45.9681 55.6786 45.2235C55.1885 44.8483 52.9597 43.3013 52.1567 43.8211C51.6273 44.1638 51.9869 47.1916 51.9869 47.7858C51.9869 51.8102 52.9937 55.8453 53.5302 59.8214C53.7382 61.3637 53.9499 62.8866 54.2132 64.4212C54.4759 65.9518 54.6986 67.4912 54.9129 69.0292C55.1997 71.088 55.3209 73.1764 55.3802 75.2548C55.4667 78.2881 55.5106 81.2345 56.0838 84.2275C56.292 85.3145 56.5057 86.3909 56.7641 87.466C56.8149 87.6776 57.1534 88.806 57.1534 88.5519" fill="none" opacity="1" stroke="#000000" stroke-linecap="round" stroke-linejoin="miter" stroke-width="4.1"/>
<path d="M51.5033 60.9616L51.7731 60.9616L52.9009 60.9616L53.592 60.9616L53.9797 60.9616L54.2062 60.9616L54.2062 60.9616" fill="none" opacity="1" stroke="#000000" stroke-linecap="round" stroke-linejoin="miter" stroke-width="4.1"/>
<path d="M54.1129 60.9616C56.0618 60.4439 57.7348 59.1708 59.7769 58.9515" fill="none" opacity="1" stroke="#000000" stroke-linecap="round" stroke-linejoin="miter" stroke-width="4.1"/>
<path d="M34.2107 60.3739C34.2107 58.9359 34.1658 57.6851 34.7698 56.3481C35.735 54.2119 37.6612 52.6659 38.6418 50.555C39.0676 49.6384 38.8183 48.2815 38.8183 47.2969C38.8183 43.5657 37.8136 39.9895 33.556 39.9895" fill="none" opacity="1" stroke="#000000" stroke-linecap="round" stroke-linejoin="miter" stroke-width="4.1"/>
</g>
</svg>
