<?xml version="1.0" encoding="UTF-8" standalone="no"?>
<!DOCTYPE svg PUBLIC "-//W3C//DTD SVG 1.1//EN" "http://www.w3.org/Graphics/SVG/1.1/DTD/svg11.dtd">
<!-- Created with Vectornator (http://vectornator.io/) -->
<svg height="100%" stroke-miterlimit="10" style="fill-rule:nonzero;clip-rule:evenodd;stroke-linecap:round;stroke-linejoin:round;" version="1.1" viewBox="0 0 87.9388 114.564" width="100%" xml:space="preserve" xmlns="http://www.w3.org/2000/svg" xmlns:vectornator="http://vectornator.io" xmlns:xlink="http://www.w3.org/1999/xlink">
<defs/>
<g id="Слой-1" vectornator:layerName="Слой 1">
<path d="M78.3637 91.1776C74.7304 91.97 71.6856 94.453 68.3863 96.1686C62.8304 99.0577 57.6927 101.817 51.4411 102.013C1.22783 103.587 27.1366 11.5485 28.52 9.49563C28.6151 9.35458 28.7139 9.36491 28.8517 9.4777C30.3933 10.7395 31.2575 12.9557 31.9884 14.7286C33.1602 17.5711 38.0326 26.3614 41.683 26.6295C41.8369 26.6407 41.5943 26.3069 41.4666 26.2204C41.0183 25.9167 39.4596 25.1673 39.2819 25.0748C38.4437 24.6387 37.5911 24.2275 36.7774 23.7473C33.7239 21.9451 30.9428 19.8623 28.4186 17.372C27.538 16.5032 26.8064 15.7185 26.116 14.7229C25.888 14.3941 25.5727 13.2292 25.631 13.625C26.0426 16.4208 23.4834 19.2885 21.7523 21.1387C19.0008 24.0796 15.3838 26.5475 11.7184 28.2183C9.99588 29.0036 7.47771 29.6134 6.02367 30.8791C5.89733 30.9891 6.3551 30.8303 6.52081 30.8059C7.1091 30.7193 7.57635 30.6819 8.14687 30.4143C9.85324 29.6139 11.0479 28.2487 12.2424 26.839C15.4171 23.0928 17.5644 18.6346 20.7455 14.8754C21.0512 14.514 25.0447 10.7238 25.0532 10.7817" fill="none" opacity="1" stroke="#eb432a" stroke-linecap="round" stroke-linejoin="miter" stroke-width="4.1"/>
</g>
</svg>
