<?xml version="1.0" encoding="UTF-8" standalone="no"?>
<!DOCTYPE svg PUBLIC "-//W3C//DTD SVG 1.1//EN" "http://www.w3.org/Graphics/SVG/1.1/DTD/svg11.dtd">
<!-- Created with Vectornator (http://vectornator.io/) -->
<svg height="100%" stroke-miterlimit="10" style="fill-rule:nonzero;clip-rule:evenodd;stroke-linecap:round;stroke-linejoin:round;" version="1.1" viewBox="0 0 362.405 164.083" width="100%" xml:space="preserve" xmlns="http://www.w3.org/2000/svg" xmlns:vectornator="http://vectornator.io" xmlns:xlink="http://www.w3.org/1999/xlink">
<defs/>
<g id="Слой-1" vectornator:layerName="Слой 1">
<path d="M49.3567 105.009C49.3567 102.501 53.766 99.9108 55.4796 98.7684C60.4331 95.466 66.5603 92.794 68.8467 86.8679C69.7713 84.4717 70.5202 81.3665 69.9499 78.7896C67.9742 69.8629 53.1685 69.7075 55.4112 58.244C55.5912 57.3238 56.8554 56.9746 57.6002 56.7387C58.3445 56.5029 61.6026 55.6248 62.3596 56.368C63.206 57.1991 63.4119 59.3053 63.6917 60.4171C63.7059 60.4734 63.8225 60.9626 63.7009 61.005C63.423 61.1019 64.6303 58.7508 64.6608 58.7134C65.3636 57.8521 66.0944 57.0054 66.807 56.2309C69.3407 53.4767 73.5904 51.2082 74.9959 47.5892C76.478 43.7734 72.5031 36.3898 69.0218 34.7543C67.3004 33.9456 64.2335 33.7574 62.3672 34.1795C60.6995 34.5566 59.775 38.1259 61.7122 38.1259" fill="none" opacity="1" stroke="#000000" stroke-linecap="round" stroke-linejoin="miter" stroke-width="4.1"/>
<path d="M80.2582 93.1888C80.2582 84.3815 79.5081 73.8141 86.6217 67.1537C94.1238 60.1297 113.029 63.3831 116.547 51.7797C117.477 48.712 117.443 45.5046 117.443 42.3386C117.443 40.1553 118.026 37.0486 117.191 34.9889C115.772 31.4898 106.717 27.7533 103.295 29.5631C101.183 30.6803 100.282 34.8513 100.146 36.9585C99.996 39.2742 105.007 42.9164 107.118 42.2106C107.516 42.0777 107.47 41.2508 107.47 40.9559C107.47 38.8396 104.926 38.1772 107.8 38.1772C108.431 38.1772 108.476 38.1504 109.161 38.2874C109.519 38.3589 110.918 38.7369 111.211 38.8251C112.036 39.0731 112.451 39.2343 113.237 39.5315C114.181 39.888 115.257 40.2156 115.941 41.0158C116.621 41.8117 116.232 43.1074 116.687 43.6907C118.225 45.6614 123.378 48.2234 125.552 49.6165C126.306 50.0997 129.521 52.642 130.717 52.0869C131.657 51.6509 131.597 48.7209 131.761 48.0424C132.11 46.6024 132.562 45.1892 132.967 43.764C133.444 42.0867 134.26 40.1241 134.071 38.3281C133.746 35.2446 130.223 31.21 127.926 29.2261C126.485 27.9809 120.043 26.7215 121.687 23.7602C122.716 21.9075 127.074 21.4558 128.698 21.9413C129.032 22.041 128.784 24.6441 128.637 25.0054C128.617 25.0541 128.198 25.6466 128.379 25.6681C128.89 25.7288 129.646 24.6287 130.055 24.3689C131.262 23.6023 135.284 22.2444 136.348 23.7976C137.397 25.329 137.187 27.7633 135.621 28.7967C135.028 29.1876 131.094 29.8461 132.167 29.0185C135.246 26.6444 140.57 33.927 138.757 36.2816C137.195 38.3109 129.319 39.1295 126.974 38.8787C125.302 38.7 124.637 36.129 125.472 34.8067C127.501 31.595 128.542 38.6064 124.587 39.3267C123.471 39.5298 122.176 39.4641 121.088 39.1677C119.213 38.6567 113.408 35.809 115.499 32.8521C116.831 30.97 122.082 31.167 124.038 31.7087" fill="none" opacity="1" stroke="#000000" stroke-linecap="round" stroke-linejoin="miter" stroke-width="4.1"/>
</g>
</svg>
