<?xml version="1.0" encoding="UTF-8" standalone="no"?>
<!DOCTYPE svg PUBLIC "-//W3C//DTD SVG 1.1//EN" "http://www.w3.org/Graphics/SVG/1.1/DTD/svg11.dtd">
<!-- Created with Vectornator (http://vectornator.io/) -->
<svg height="100%" stroke-miterlimit="10" style="fill-rule:nonzero;clip-rule:evenodd;stroke-linecap:round;stroke-linejoin:round;" version="1.1" viewBox="0 0 29.7247 30.6743" width="100%" xml:space="preserve" xmlns="http://www.w3.org/2000/svg" xmlns:vectornator="http://vectornator.io" xmlns:xlink="http://www.w3.org/1999/xlink">
<defs/>
<clipPath id="ArtboardFrame">
<rect height="30.6743" width="29.7247" x="0" y="0"/>
</clipPath>
<g clip-path="url(#ArtboardFrame)" id="Слой-1" vectornator:layerName="Слой 1">
<path d="M202.782 171.903C201.355 172.21 200.774 175.838 200.629 176.95C199.945 182.202 199.723 188.01 200.153 193.278C201.632 211.426 216.511 219.867 233.138 219.144C235.406 219.046 237.4 218.371 239.268 217.103C243.169 214.457 242.876 209.255 243.131 205.09C243.272 202.797 243.487 200.375 243.307 198.078C242.7 190.312 234.431 188.307 228.954 184.861C225.954 182.974 223.566 180.154 220.514 178.396C217.781 176.822 209.125 176 205.798 176.717C204.78 176.937 203.313 179.663 202.656 180.429C202.591 180.505 202.021 181.19 201.912 181.353C201.847 181.452 201.75 181.787 201.75 181.669" fill="none" opacity="1" stroke="#000000" stroke-linecap="round" stroke-linejoin="miter" stroke-width="4.1"/>
</g>
<g clip-path="url(#ArtboardFrame)" id="Слой-2" vectornator:layerName="Слой 2">
<path d="M133.122 22.9603C133.573 23.4021 137.647 23.026 138.181 23.026C139.109 23.026 140.036 23.026 140.963 23.026C141.898 23.026 142.833 23.026 143.769 23.026C144.734 23.026 144.48 21.9218 144.413 23.499C144.405 23.6752 144.409 23.8517 144.413 24.028C144.422 24.3984 144.396 24.7718 144.452 25.1388C144.535 25.6834 144.672 26.2214 144.829 26.753C145.308 28.3851 145.7 28.8899 145.981 30.5524C146.195 31.8236 146.347 33.1037 146.456 34.3856C146.478 34.6527 146.45 37.2681 146.422 37.6775C146.273 39.8823 146.375 43.4355 144.285 44.901" fill="none" opacity="1" stroke="#000000" stroke-linecap="round" stroke-linejoin="miter" stroke-width="3.1"/>
<path d="M132.91 22.8021C132.91 26.0166 132.91 29.2311 132.91 32.4457C132.91 33.0064 132.461 33.7786 132.933 34.1277C135.964 36.368 139.665 39.1142 143.112 40.7842" fill="none" opacity="1" stroke="#000000" stroke-linecap="round" stroke-linejoin="miter" stroke-width="3.1"/>
<path d="M144.106 45.2055C144.01 45.7507 141.895 46.9977 141.43 47.3454C139.003 49.1576 132.61 52.2082 131.986 55.6163C131.36 59.0404 135.149 63.6144 136.478 66.372C137.024 67.5037 137.367 68.841 137.575 70.0802C137.717 70.9248 137.658 70.824 137.733 71.5429C137.751 71.7211 137.848 72.2471 137.848 72.0679" fill="none" opacity="1" stroke="#000000" stroke-linecap="round" stroke-linejoin="miter" stroke-width="3.1"/>
<path d="M141.271 43.5525C138.017 43.5525 134.655 43.3506 131.404 43.5525C126.095 43.8823 121.142 47.083 116.528 49.4152C116.062 49.6504 116.488 50.4948 116.365 51.0158C115.683 53.8948 114.913 56.751 114.238 59.6318C114.013 60.5895 113.843 61.56 113.668 62.5288C113.189 65.1867 112.594 67.975 112.594 70.6971" fill="none" opacity="1" stroke="#000000" stroke-linecap="round" stroke-linejoin="miter" stroke-width="3.1"/>
<path d="M139.32 29.7105C139.472 31.4182 141.976 32.8579 142.631 34.5148C143.346 36.3242 140.75 38.913 139.856 40.5479C137.81 44.2874 135.941 48.1604 131.311 51.2886" fill="none" opacity="1" stroke="#000000" stroke-linecap="round" stroke-linejoin="miter" stroke-width="3.1"/>
<path d="M132.043 30.6698C131.94 30.5705 128.359 30.6296 127.95 30.6296C127.053 30.6296 126.152 30.563 125.258 30.6296C120.755 30.9648 121.344 31.7019 121.313 34.9111C121.3 36.3239 121.289 37.4412 121.152 38.8639C120.948 40.9713 120.579 43.0856 120.073 45.1476" fill="none" opacity="1" stroke="#000000" stroke-linecap="round" stroke-linejoin="miter" stroke-width="3.1"/>
<path d="M23.2459 21.5685C23.0263 22.7694 21.3871 24.2716 20.6486 25.1654C17.8278 28.5791 18.4427 29.0499 15.2379 25.8867C14.6217 25.2785 13.9909 24.68 13.4115 24.0454C10.7789 21.1624 10.838 17.2543 10.6137 13.8074C10.5454 12.7575 10.0723 11.3698 10.2619 10.333" fill="none" opacity="1" stroke="#000000" stroke-linecap="round" stroke-linejoin="miter" stroke-width="3.1"/>
<path d="M14.633 13.9829L14.7344 13.9988L15.1811 13.9361L15.4696 13.8514L15.6726 13.7926L15.8482 13.7341L15.8692 13.7374L15.8918 13.7409L15.8918 13.7409" fill="none" opacity="1" stroke="#000000" stroke-linecap="round" stroke-linejoin="miter" stroke-width="3.1"/>
<path d="M17.9024 19.3702C17.7105 19.7051 14.2171 20.4094 13.3505 20.6188" fill="none" opacity="1" stroke="#000000" stroke-linecap="round" stroke-linejoin="miter" stroke-width="3.1"/>
<path d="M26.9159 11.6003C22.2363 10.8678 17.5567 10.1353 12.877 9.40284C12.4721 9.33947 8.9425 9.0992 9.00798 8.53977" fill="none" opacity="1" stroke="#000000" stroke-linecap="round" stroke-linejoin="miter" stroke-width="3.1"/>
<path d="M24.9415 9.37591C25.3788 6.9919 24.0052 4.81309 21.1256 4.04652C19.0099 3.48329 17.8699 4.68328 15.9263 4.79311C15.5422 4.81481 15.6775 4.13418 15.4119 3.88738C14.7991 3.31795 14.1644 3.1486 13.3002 3.00165C11.4474 2.68663 9.72375 3.10228 7.87873 3.02678C5.86505 2.94439 4.04308 2.22391 2.1557 1.89742" fill="none" opacity="1" stroke="#000000" stroke-linecap="round" stroke-linejoin="miter" stroke-width="3.1"/>
<path d="M9.91185 8.02247C8.66479 7.7032 3.09085 6.94051 2.47485 5.46157C2.16399 4.71522 2.24491 2.83511 2.10172 1.92772" fill="none" opacity="1" stroke="#000000" stroke-linecap="round" stroke-linejoin="miter" stroke-width="3.1"/>
<path d="M23.47 20.7184C23.8485 18.6489 24.4949 16.5083 24.5883 14.4126C24.6145 13.824 24.356 13.196 24.4616 12.6189" fill="none" opacity="1" stroke="#000000" stroke-linecap="round" stroke-linejoin="miter" stroke-width="3.1"/>
<path d="M110.521 70.0639C111.454 70.0639 112.388 70.0639 113.322 70.0639C113.395 70.0639 114.615 70.0803 114.615 70.0267" fill="none" opacity="1" stroke="#000000" stroke-linecap="round" stroke-linejoin="miter" stroke-width="3.1"/>
<path d="M114.859 72.0815C114.963 72.3875 114.883 72.8601 114.883 73.1849C114.883 75.4027 114.828 74.4983 112.474 74.5745C110.773 74.6296 109.067 74.5947 107.365 74.5947C107.088 74.5947 106.47 74.5853 106.184 74.6204C105.405 74.7161 102.132 76.1104 102.73 74.2767C102.835 73.9557 103.009 73.5378 103.271 73.311C103.503 73.1104 103.749 72.9259 104.002 72.7529C104.348 72.5161 104.865 72.2716 105.243 72.1111C105.88 71.8399 106.539 71.6365 107.198 71.4257C108.578 70.9839 109.986 70.6868 111.367 70.2589" fill="none" opacity="1" stroke="#000000" stroke-linecap="round" stroke-linejoin="miter" stroke-width="3.1"/>
<path d="M135.986 72.2819C136.836 72.2819 138.782 72.5202 139.554 71.9824C139.748 71.8474 139.526 72.4549 139.535 72.691C139.543 72.8852 139.566 73.079 139.566 73.2735C139.566 73.8983 139.847 74.9456 139.619 75.5234C139.552 75.6934 137.001 76.4156 136.907 76.4346C134.68 76.889 132.389 77.0422 130.141 77.3831C127.889 77.7247 126.517 78.1602 128.798 75.9575C129.2 75.5692 129.329 75.4371 129.777 75.1005C130.295 74.7115 130.845 74.4193 131.428 74.1414C132.571 73.596 133.673 73.0643 134.915 72.784" fill="none" opacity="1" stroke="#000000" stroke-linecap="round" stroke-linejoin="miter" stroke-width="3.1"/>
<path d="M133.916 56.3144C135.907 56.3144 137.987 56.4836 139.966 56.2174C142.827 55.8324 145.692 53.3691 146.446 50.6073C146.939 48.8044 146.617 46.646 146.617 44.7934" fill="none" opacity="1" stroke="#000000" stroke-linecap="round" stroke-linejoin="miter" stroke-width="3.1"/>
</g>
</svg>
