<?xml version="1.0" encoding="UTF-8" standalone="no"?>
<!DOCTYPE svg PUBLIC "-//W3C//DTD SVG 1.1//EN" "http://www.w3.org/Graphics/SVG/1.1/DTD/svg11.dtd">
<!-- Created with Vectornator (http://vectornator.io/) -->
<svg height="100%" stroke-miterlimit="10" style="fill-rule:nonzero;clip-rule:evenodd;stroke-linecap:round;stroke-linejoin:round;" version="1.1" viewBox="0 0 69.1852 59.521" width="100%" xml:space="preserve" xmlns="http://www.w3.org/2000/svg" xmlns:vectornator="http://vectornator.io" xmlns:xlink="http://www.w3.org/1999/xlink">
<defs/>
<clipPath id="ArtboardFrame">
<rect height="59.521" width="69.1852" x="0" y="0"/>
</clipPath>
<g clip-path="url(#ArtboardFrame)" id="Слой-1" vectornator:layerName="Слой 1">
<path d="M202.782 171.903C201.355 172.21 200.774 175.838 200.629 176.95C199.945 182.202 199.723 188.01 200.153 193.278C201.632 211.426 216.511 219.867 233.138 219.144C235.406 219.046 237.4 218.371 239.268 217.103C243.169 214.457 242.876 209.255 243.131 205.09C243.272 202.797 243.487 200.375 243.307 198.078C242.7 190.312 234.431 188.307 228.954 184.861C225.954 182.974 223.566 180.154 220.514 178.396C217.781 176.822 209.125 176 205.798 176.717C204.78 176.937 203.313 179.663 202.656 180.429C202.591 180.505 202.021 181.19 201.912 181.353C201.847 181.452 201.75 181.787 201.75 181.669" fill="none" opacity="1" stroke="#000000" stroke-linecap="round" stroke-linejoin="miter" stroke-width="4.1"/>
</g>
<g clip-path="url(#ArtboardFrame)" id="Слой-2" vectornator:layerName="Слой 2">
<path d="M33.3488 2.27203C33.7993 2.71383 37.874 2.33771 38.4079 2.33771C39.3352 2.33771 40.2625 2.33771 41.1899 2.33771C42.1249 2.33771 43.06 2.33771 43.9951 2.33771C44.9605 2.33771 44.7065 1.23354 44.6395 2.81077C44.632 2.98696 44.6353 3.16345 44.6395 3.33974C44.6484 3.71012 44.6229 4.0835 44.6789 4.45057C44.762 4.99515 44.8989 5.53318 45.0551 6.06476C45.5347 7.69679 45.9266 8.2016 46.2071 9.86416C46.4217 11.1353 46.5741 12.4154 46.6822 13.6973C46.7047 13.9645 46.6768 16.5798 46.649 16.9892C46.4993 19.1941 46.6014 22.7473 44.5114 24.2127" fill="none" opacity="1" stroke="#000000" stroke-linecap="round" stroke-linejoin="miter" stroke-width="3.1"/>
<path d="M33.1368 2.11379C33.1368 5.32834 33.1368 8.54288 33.1368 11.7574C33.1368 12.3181 32.6872 13.0903 33.1596 13.4394C36.1908 15.6797 39.8917 18.426 43.3386 20.0959" fill="none" opacity="1" stroke="#000000" stroke-linecap="round" stroke-linejoin="miter" stroke-width="3.1"/>
<path d="M44.3321 24.5172C44.2361 25.0624 42.1221 26.3095 41.6565 26.6571C39.2298 28.4693 32.8363 31.5199 32.2131 34.9281C31.5869 38.3521 35.3753 42.9261 36.7049 45.6838C37.2506 46.8155 37.5935 48.1527 37.8014 49.3919C37.9431 50.2366 37.8843 50.1357 37.9595 50.8546C37.9781 51.0329 38.0751 51.5589 38.0751 51.3796" fill="none" opacity="1" stroke="#000000" stroke-linecap="round" stroke-linejoin="miter" stroke-width="3.1"/>
<path d="M41.4977 22.8643C38.2436 22.8643 34.8812 22.6624 31.6306 22.8643C26.3215 23.194 21.3683 26.3947 16.7541 28.7269C16.2888 28.9621 16.7147 29.8065 16.5913 30.3275C15.9095 33.2066 15.1391 36.0627 14.4643 38.9436C14.2399 39.9012 14.0691 40.8718 13.8944 41.8405C13.4152 44.4984 12.8209 47.2867 12.8209 50.0089" fill="none" opacity="1" stroke="#000000" stroke-linecap="round" stroke-linejoin="miter" stroke-width="3.1"/>
<path d="M39.5465 9.02227C39.6989 10.73 42.2028 12.1696 42.8575 13.8265C43.5724 15.6359 40.9765 18.2248 40.0821 19.8596C38.0364 23.5991 36.1678 27.4722 31.5372 30.6003" fill="none" opacity="1" stroke="#000000" stroke-linecap="round" stroke-linejoin="miter" stroke-width="3.1"/>
<path d="M32.2694 9.98149C32.1662 9.88226 28.5856 9.94134 28.1765 9.94134C27.2791 9.94134 26.3789 9.87473 25.4843 9.94134C20.9813 10.2766 21.5701 11.0137 21.5399 14.2229C21.5267 15.6357 21.5159 16.7529 21.3784 18.1756C21.1748 20.283 20.8058 22.3973 20.3 24.4594" fill="none" opacity="1" stroke="#000000" stroke-linecap="round" stroke-linejoin="miter" stroke-width="3.1"/>
<path d="M35.0643 101.586C34.8446 102.787 33.2054 104.289 32.467 105.183C29.6462 108.597 30.261 109.068 27.0562 105.905C26.44 105.296 25.8092 104.698 25.2298 104.063C22.5972 101.18 22.6564 97.2721 22.432 93.8252C22.3637 92.7753 21.8906 91.3876 22.0802 90.3508" fill="none" opacity="1" stroke="#000000" stroke-linecap="round" stroke-linejoin="miter" stroke-width="3.1"/>
<path d="M26.4513 94.0007L26.5527 94.0165L26.9994 93.9539L27.2879 93.8692L27.4909 93.8104L27.6665 93.7518L27.6875 93.7551L27.7102 93.7587L27.7102 93.7587" fill="none" opacity="1" stroke="#000000" stroke-linecap="round" stroke-linejoin="miter" stroke-width="3.1"/>
<path d="M29.7207 99.388C29.5288 99.7229 26.0354 100.427 25.1688 100.637" fill="none" opacity="1" stroke="#000000" stroke-linecap="round" stroke-linejoin="miter" stroke-width="3.1"/>
<path d="M38.7342 91.618C34.0546 90.8856 29.375 90.1531 24.6953 89.4206C24.2905 89.3572 20.7608 89.117 20.8263 88.5576" fill="none" opacity="1" stroke="#000000" stroke-linecap="round" stroke-linejoin="miter" stroke-width="3.1"/>
<path d="M36.7598 89.3937C37.1971 87.0097 35.8235 84.8309 32.9439 84.0643C30.8282 83.5011 29.6883 84.7011 27.7446 84.8109C27.3605 84.8326 27.4958 84.152 27.2302 83.9052C26.6174 83.3357 25.9827 83.1664 25.1185 83.0194C23.2657 82.7044 21.5421 83.1201 19.697 83.0446C17.6834 82.9622 15.8614 82.2417 13.974 81.9152" fill="none" opacity="1" stroke="#000000" stroke-linecap="round" stroke-linejoin="miter" stroke-width="3.1"/>
<path d="M21.7302 88.0402C20.4831 87.721 14.9092 86.9583 14.2932 85.4794C13.9823 84.733 14.0632 82.8529 13.92 81.9455" fill="none" opacity="1" stroke="#000000" stroke-linecap="round" stroke-linejoin="miter" stroke-width="3.1"/>
<path d="M35.2883 100.736C35.6668 98.6667 36.3132 96.5261 36.4066 94.4304C36.4328 93.8418 36.1743 93.2138 36.2799 92.6367" fill="none" opacity="1" stroke="#000000" stroke-linecap="round" stroke-linejoin="miter" stroke-width="3.1"/>
<path d="M10.7474 49.3756C11.681 49.3756 12.6147 49.3756 13.5483 49.3756C13.6221 49.3756 14.8415 49.392 14.8415 49.3384" fill="none" opacity="1" stroke="#000000" stroke-linecap="round" stroke-linejoin="miter" stroke-width="3.1"/>
<path d="M15.086 51.3932C15.1894 51.6992 15.1096 52.1718 15.1096 52.4966C15.1096 54.7144 15.0546 53.81 12.7011 53.8862C10.9999 53.9413 9.2935 53.9064 7.59149 53.9064C7.31484 53.9064 6.69695 53.897 6.41087 53.9321C5.63168 54.0278 2.35834 55.4222 2.95707 53.5885C3.0619 53.2674 3.23536 52.8496 3.49742 52.6227C3.72917 52.4221 3.9752 52.2376 4.22823 52.0646C4.57456 51.8278 5.09164 51.5833 5.46919 51.4228C6.107 51.1516 6.76546 50.9482 7.42431 50.7374C8.80498 50.2957 10.2124 49.9985 11.5933 49.5706" fill="none" opacity="1" stroke="#000000" stroke-linecap="round" stroke-linejoin="miter" stroke-width="3.1"/>
<path d="M36.2125 51.5936C37.0623 51.5936 39.0082 51.832 39.7805 51.2941C39.9743 51.1591 39.7522 51.7666 39.7618 52.0027C39.7696 52.197 39.7922 52.3908 39.7922 52.5852C39.7922 53.21 40.0739 54.2574 39.8456 54.8352C39.7785 55.0051 37.2271 55.7274 37.134 55.7464C34.9065 56.2007 32.6154 56.354 30.3676 56.6949C28.1156 57.0364 26.7432 57.4719 29.0241 55.2692C29.4261 54.881 29.5559 54.7489 30.004 54.4122C30.5217 54.0232 31.072 53.7311 31.6545 53.4531C32.7973 52.9077 33.8993 52.376 35.1411 52.0958" fill="none" opacity="1" stroke="#000000" stroke-linecap="round" stroke-linejoin="miter" stroke-width="3.1"/>
<path d="M34.1421 35.6262C36.1333 35.6262 38.2136 35.7953 40.1922 35.5291C43.0536 35.1441 45.9189 32.6808 46.6731 29.9191C47.1654 28.1161 46.8439 25.9577 46.8439 24.1051" fill="none" opacity="1" stroke="#000000" stroke-linecap="round" stroke-linejoin="miter" stroke-width="3.1"/>
<path d="M41.2996 44.0331C41.2996 37.4644 46.9383 32.1395 53.8939 32.1395C60.8495 32.1395 66.4882 37.4644 66.4882 44.0331C66.4882 50.6018 60.8495 55.9267 53.8939 55.9267C46.9383 55.9267 41.2996 50.6018 41.2996 44.0331Z" fill="#000000" fill-rule="nonzero" opacity="1" stroke="#000000" stroke-linecap="round" stroke-linejoin="miter" stroke-width="3.1"/>
</g>
</svg>
