<?xml version="1.0" encoding="UTF-8" standalone="no"?>
<!DOCTYPE svg PUBLIC "-//W3C//DTD SVG 1.1//EN" "http://www.w3.org/Graphics/SVG/1.1/DTD/svg11.dtd">
<!-- Created with Vectornator (http://vectornator.io/) -->
<svg height="100%" stroke-miterlimit="10" style="fill-rule:nonzero;clip-rule:evenodd;stroke-linecap:round;stroke-linejoin:round;" version="1.1" viewBox="0 0 137.958 104.836" width="100%" xml:space="preserve" xmlns="http://www.w3.org/2000/svg" xmlns:vectornator="http://vectornator.io" xmlns:xlink="http://www.w3.org/1999/xlink">
<defs/>
<clipPath id="ArtboardFrame">
<rect height="104.836" width="137.958" x="0" y="0"/>
</clipPath>
<g clip-path="url(#ArtboardFrame)" id="Слой-1" vectornator:layerName="Слой 1">
<path d="M59.8496 47.652C59.8496 47.2774 59.8496 48.4013 59.8496 48.7759C59.8496 49.2961 59.8496 49.8163 59.8496 50.3365C59.8496 52.3315 59.9064 54.0958 60.5257 56.0222C62.2318 61.3296 64.8821 67.0198 70.712 68.6723C76.0762 70.1928 74.5491 58.1818 74.4767 56.0989C74.4199 54.4654 74.3614 52.7651 74.3614 51.148C74.3614 51.0077 74.3993 50.9553 74.245 50.9553" fill="none" opacity="1" stroke="#000000" stroke-linecap="round" stroke-linejoin="miter" stroke-width="4.1"/>
<path d="M62.6719 71.1462C55.0567 71.1462 52.6704 71.6895 51.7085 79.689C51.3733 82.4758 52.1896 84.9531 52.4487 87.6797C52.4835 88.0461 52.3325 89.8398 52.9014 89.8398" fill="none" opacity="1" stroke="#000000" stroke-linecap="round" stroke-linejoin="miter" stroke-width="4.1"/>
<path d="M46.9134 95.0263C47.342 95.0263 52.0109 94.1159 52.0109 93.2584" fill="none" opacity="1" stroke="#000000" stroke-linecap="round" stroke-linejoin="miter" stroke-width="4.1"/>
<path d="M78.8753 69.4725C80.6746 69.8601 82.5555 69.9254 84.2532 70.7288C87.3446 72.1917 91.2781 79.2135 92.4161 82.516C92.7397 83.4549 93.33 85.7182 92.5368 86.5219C91.9613 87.1051 90.9117 87.0996 90.4369 87.7754C90.1134 88.2359 90.2798 91.6044 90.2798 90.4789" fill="none" opacity="1" stroke="#000000" stroke-linecap="round" stroke-linejoin="miter" stroke-width="4.1"/>
<path d="M91.091 92.8999C91.3803 93.4018 93.4147 93.7302 93.9865 93.9357C94.779 94.2204 95.9475 95.2998 96.7825 95.2998" fill="none" opacity="1" stroke="#000000" stroke-linecap="round" stroke-linejoin="miter" stroke-width="4.1"/>
<path d="M62.4034 53.2814C62.5403 53.5861 64.7008 53.3815 65.0306 53.3815C67.6858 53.3815 70.2553 54.3917 72.8267 54.3917" fill="none" opacity="1" stroke="#000000" stroke-linecap="round" stroke-linejoin="miter" stroke-width="4.1"/>
<path d="M60.5569 40.3482C63.03 41.1613 65.2491 41.9488 67.9272 41.5804C68.7669 41.4649 70.1383 39.4914 70.9196 39.6909C70.9823 39.7069 70.9425 39.819 70.9425 39.8838C70.9425 40.6978 72.7128 44.7927 73.7294 44.9432" fill="none" opacity="1" stroke="#000000" stroke-linecap="round" stroke-linejoin="miter" stroke-width="4.1"/>
<path d="M60.0834 31.7378C61.0271 32.3813 67.2605 31.6314 67.8195 30.5363C68.6176 28.9726 68.0132 26.8112 68.2169 25.1228C68.3825 23.7503 69.2749 22.6966 69.6393 21.3935C70.4911 18.3481 70.0896 10.1522 67.6601 8.02314C65.2548 5.9153 63.292 9.01351 61.8926 10.6203C58.5444 14.4647 56.9687 18.7459 56.8228 23.8695C56.796 24.8095 56.415 26.9158 57.3845 27.5699" fill="none" opacity="1" stroke="#000000" stroke-linecap="round" stroke-linejoin="miter" stroke-width="4.1"/>
<path d="M62.617 20.1534L62.6777 20.1534L63.0801 20.1534L63.323 20.1534L63.5483 20.1549L63.7362 20.1852L63.8813 20.2418L63.9964 20.2763L64.0924 20.3039L64.1393 20.3245L64.1734 20.3245L64.2199 20.3245L64.245 20.3245L64.245 20.3245" fill="none" opacity="1" stroke="#000000" stroke-linecap="round" stroke-linejoin="miter" stroke-width="4.1"/>
<path d="M61.1229 15.255C63.0976 15.255 65.0678 15.4561 67.0293 15.4561C67.2721 15.4561 68.6077 15.6241 68.6178 15.296" fill="none" opacity="1" stroke="#000000" stroke-linecap="round" stroke-linejoin="miter" stroke-width="4.1"/>
<path d="M61.2771 26.13L61.2004 26.13L60.8867 26.13L60.6615 26.13L60.4084 26.13L60.1697 26.13L59.9467 26.13L59.7649 26.13L59.6458 26.13L59.5828 26.13L59.5828 26.13" fill="none" opacity="1" stroke="#000000" stroke-linecap="round" stroke-linejoin="miter" stroke-width="4.1"/>
<path d="M20.3652 44.9825C26.7826 44.9825 33.3847 45.4508 39.7931 44.9388C42.1232 44.7526 44.5737 45.2181 46.8782 44.8552C47.2485 44.7969 48.9334 44.9497 48.8274 44.5003" fill="none" opacity="1" stroke="#000000" stroke-linecap="round" stroke-linejoin="miter" stroke-width="4.1"/>
<path d="M80.8632 42.9969C90.3678 42.996 99.8725 42.9969 109.377 42.9969C109.952 42.9969 116.96 43.1461 117.007 42.534" fill="none" opacity="1" stroke="#000000" stroke-linecap="round" stroke-linejoin="miter" stroke-width="4.1"/>
<path d="M21.0864 55.7198C21.0243 55.8689 21.4016 55.7887 21.4797 55.7887C22.5144 55.7887 23.5491 55.7887 24.5838 55.7887C25.4272 55.7887 26.2706 55.7887 27.1141 55.7887C32.276 55.7887 37.4407 55.8355 42.6025 55.7887C44.7291 55.7694 46.8469 55.6138 48.9775 55.6138C49.2515 55.6138 49.3529 55.7154 49.3529 55.4213" fill="none" opacity="1" stroke="#000000" stroke-linecap="round" stroke-linejoin="miter" stroke-width="4.1"/>
<path d="M80.482 54.9631C80.7267 55.2386 80.5116 55.0303 81.3774 55.0303C83.2442 55.0303 85.111 55.0303 86.9778 55.0303C94.8507 55.0303 102.724 55.0303 110.596 55.0303C113.095 55.0303 115.594 55.0303 118.092 55.0303C118.218 55.0303 122.581 55.1416 121.553 54.7761" fill="none" opacity="1" stroke="#000000" stroke-linecap="round" stroke-linejoin="miter" stroke-width="4.1"/>
<path d="M19.42 67.0125C19.8991 67.539 20.8426 67.0798 21.5545 67.0798C22.5111 67.0798 23.4677 67.0798 24.4243 67.0798C28.3457 67.0798 32.2672 67.0798 36.1887 67.0798C38.4655 67.0798 40.7423 67.0798 43.0191 67.0798C43.1394 67.0798 46.5915 67.1564 46.5223 66.9156" fill="none" opacity="1" stroke="#000000" stroke-linecap="round" stroke-linejoin="miter" stroke-width="4.1"/>
<path d="M82.03 64.3024C89.4942 64.3018 97.2468 64.9657 104.687 64.3024C108.794 63.9362 112.869 62.55 117.034 62.55" fill="none" opacity="1" stroke="#000000" stroke-linecap="round" stroke-linejoin="miter" stroke-width="4.1"/>
<path d="M111.429 37.6773C114.85 37.6774 118.815 37.1458 121.976 38.8C129.23 42.5957 125.647 57.4249 124.841 63.147C124.411 66.1919 124.281 67.1735 123.974 70.2831C123.519 74.8873 122.19 80.6267 123.024 85.2886C123.272 86.6732 127.481 86.1093 127.834 85.0184" fill="none" opacity="1" stroke="#000000" stroke-linecap="round" stroke-linejoin="miter" stroke-width="4.1"/>
<path d="M75.8367 38.3615C78.0913 37.3872 80.1715 36.1004 82.4646 35.1939C85.0505 34.1716 90.3783 30.8559 93.4009 32.1874C94.7084 32.7633 94.0006 35.639 94.1389 36.7049C94.5986 40.2499 96.188 43.4674 96.7886 46.9631" fill="none" opacity="1" stroke="#000000" stroke-linecap="round" stroke-linejoin="miter" stroke-width="4.1"/>
<path d="M54.5872 41.6129C53.3867 39.2955 51.0184 37.8166 49.0825 36.166C47.7915 35.0652 46.5983 33.8529 45.3079 32.7514C44.7744 32.2961 43.7316 31.5477 43.1043 31.1595C39.4722 28.9119 39.8879 33.5878 38.8835 35.8434C37.7773 38.3278 36.1681 40.3538 34.535 42.4869" fill="none" opacity="1" stroke="#000000" stroke-linecap="round" stroke-linejoin="miter" stroke-width="4.1"/>
<path d="M95.1979 76.3269C95.1979 74.3823 95.2319 72.7655 96.056 70.9764C96.1194 70.8387 96.6242 69.6164 96.7694 69.6995" fill="none" opacity="1" stroke="#000000" stroke-linecap="round" stroke-linejoin="miter" stroke-width="4.1"/>
<path d="M100.951 76.0765C100.951 76.4341 100.951 75.3613 100.951 75.0037C100.951 74.647 100.943 74.2901 100.951 73.9334C100.974 72.8593 101.747 70.2938 103.084 70.043" fill="none" opacity="1" stroke="#000000" stroke-linecap="round" stroke-linejoin="miter" stroke-width="4.1"/>
<path d="M109.766 75.9491C109.417 74.7007 111.512 68.4398 113.124 68.4398" fill="none" opacity="1" stroke="#000000" stroke-linecap="round" stroke-linejoin="miter" stroke-width="4.1"/>
<path d="M23.0643 73.8466C23.0643 75.8932 23.8458 77.7549 23.8458 79.8679" fill="none" opacity="1" stroke="#000000" stroke-linecap="round" stroke-linejoin="miter" stroke-width="4.1"/>
<path d="M31.0303 73.3287C31.5643 74.0896 31.0827 77.0192 31.0827 78.0473" fill="none" opacity="1" stroke="#000000" stroke-linecap="round" stroke-linejoin="miter" stroke-width="4.1"/>
<path d="M39.3887 72.99C39.3887 73.7379 40.6217 79.088 39.5675 78.7628" fill="none" opacity="1" stroke="#000000" stroke-linecap="round" stroke-linejoin="miter" stroke-width="4.1"/>
<path d="M21.4261 83.3281C21.7689 82.9647 24.7716 83.2711 25.2082 83.2711C26.4906 83.2711 35.2632 83.8974 36.2862 83.1609C36.5325 82.9836 36.8934 83.15 37.1968 83.1593C37.928 83.1818 43.4676 83.7833 41.5965 82.1967" fill="none" opacity="1" stroke="#000000" stroke-linecap="round" stroke-linejoin="miter" stroke-width="4.1"/>
<path d="M96.5036 81.4008C99.8264 81.4008 103.38 81.7827 106.611 80.905C107.257 80.7296 109.401 80.4991 109.643 79.771" fill="none" opacity="1" stroke="#000000" stroke-linecap="round" stroke-linejoin="miter" stroke-width="4.1"/>
<path d="M57.6939 82.7535C58.8046 82.1487 62.7139 82.6962 63.7545 82.6962C67.0917 82.6962 70.429 82.6962 73.7663 82.6962C74.1217 82.6962 78.3238 82.9776 78.2079 82.3809" fill="none" opacity="1" stroke="#000000" stroke-linecap="round" stroke-linejoin="miter" stroke-width="4.1"/>
<path d="M22.8236 39.1255C22.5962 38.6444 19.6308 39.4046 19.3748 39.4881C17.5289 40.0902 15.4014 41.472 15.2448 43.5933C15.0852 45.7545 15.2884 47.9303 15.1147 50.0974C14.8723 53.1233 14.3072 56.114 14.2579 59.1554C14.1505 65.7699 14.8348 72.6228 14.2239 79.2146C13.9956 81.6778 13.3301 84.8366 12.0012 86.9867C10.879 88.8025 8.46645 87.3028 7.90293 85.9061" fill="none" opacity="1" stroke="#000000" stroke-linecap="round" stroke-linejoin="miter" stroke-width="4.1"/>
<path d="M270.938 26.0636C271.901 24.0224 274.221 22.9118 276.152 21.7442C278.177 20.5206 280.286 19.4058 282.499 18.5707C290.078 15.7107 294.902 14.9069 303.013 14.3409C311.027 13.7816 321.444 13.0378 328.986 16.575C332.951 18.4349 338.342 23.335 341.048 26.5635C347.851 34.679 351.506 44.2698 353.638 54.5355C354.263 57.5462 354.617 60.6114 354.902 63.673C355.187 66.729 355.539 72.65 354.076 75.7618C352.111 79.9386 347.208 82.0683 343.358 83.6472C340.017 85.0175 336.557 86.1113 333.059 87.0097C321.086 90.0852 307.992 91.4459 295.638 90.6623C292.539 90.4657 289.439 90.0218 286.43 89.2542C277.896 87.0769 268.782 81.0838 271.994 71.1992C273.876 65.41 278.268 60.5945 282.087 56.0421C285.56 51.9032 289.161 47.8856 292.859 43.9498" fill="none" opacity="1" stroke="#000000" stroke-linecap="round" stroke-linejoin="miter" stroke-width="4.1"/>
<path d="M280.533 56.8227C280.533 52.7863 281.756 42.6005 278.559 39.2713C277.622 38.2964 268.555 38.2659 268.555 39.8138" fill="none" opacity="1" stroke="#000000" stroke-linecap="round" stroke-linejoin="miter" stroke-width="4.1"/>
<path d="M267.22 25.6581C267.22 18.96 258.438 18.3617 253.737 20.5538C247.947 23.2539 245.262 29.9764 245.427 35.9151C245.497 38.4587 245.701 42.2728 247.497 44.3382C248.86 45.9066 253.184 45.0553 254.939 45.0553C257.698 45.0553 261.613 45.7738 264.307 45.0051C266.125 44.4863 266.211 39.6886 265.994 38.4576" fill="none" opacity="1" stroke="#000000" stroke-linecap="round" stroke-linejoin="miter" stroke-width="4.1"/>
<path d="M249.045 38.2577C251.136 38.2577 253.228 38.2577 255.319 38.2577" fill="none" opacity="1" stroke="#000000" stroke-linecap="round" stroke-linejoin="miter" stroke-width="4.1"/>
<path d="M255.791 28.1582C255.333 28.172 256.678 27.873 257.137 27.873C257.976 27.873 258.526 27.9402 259.284 28.2901C259.564 28.4197 260.567 29.6334 259.873 29.8773" fill="none" opacity="1" stroke="#000000" stroke-linecap="round" stroke-linejoin="miter" stroke-width="4.1"/>
<path d="M340.079 67.5525C339.673 67.1181 339.958 69.0033 339.983 69.1359C340.233 70.4485 342.258 73.2495 343.759 71.4939" fill="none" opacity="1" stroke="#000000" stroke-linecap="round" stroke-linejoin="miter" stroke-width="4.1"/>
<path d="M249.15 22.308C249.15 21.0065 248.609 19.7302 248.801 18.4158C249.18 15.8332 252.637 13.5129 254.173 11.6109C255.201 10.3376 256.915 7.93424 258.821 8.09755C258.934 8.10725 258.486 8.92285 258.482 8.93367C258.337 9.32328 258.061 11.7787 258.327 11.8001C259.313 11.8797 260.831 10.1052 262.324 10.3482C263.266 10.5016 261.602 12.2122 263.245 12.1068C263.6 12.084 263.956 12.0533 264.308 11.9939C264.614 11.9421 268.431 10.838 268.511 10.8804C268.69 10.9761 268.241 11.1862 268.129 11.3557C268.031 11.5033 267.466 12.6321 267.793 12.7869C268.289 13.0218 272.148 12.7843 272.182 12.868C272.471 13.5615 270.543 16.563 271.453 17.8701C271.919 18.5393 274.397 18.3853 274.447 18.4731C274.872 19.2189 272.915 23.3622 272.503 24.0108" fill="none" opacity="1" stroke="#000000" stroke-linecap="round" stroke-linejoin="miter" stroke-width="4.1"/>
<path d="M297.61 31.1538C296.69 31.1538 295.779 31.0753 294.925 31.488C293.203 32.3205 290.703 35.3261 293.151 36.7836C297.055 39.1087 306.647 37.5535 306.396 44.2313C306.294 46.9552 303.724 49.1089 302.043 50.9693C298.721 54.6453 295.229 58.1415 291.42 61.316" fill="none" opacity="1" stroke="#000000" stroke-linecap="round" stroke-linejoin="miter" stroke-width="4.1"/>
<path d="M266.656 63.6579C267.477 64.0114 271.908 66.0626 273.076 65.2212" fill="none" opacity="1" stroke="#000000" stroke-linecap="round" stroke-linejoin="miter" stroke-width="4.1"/>
<path d="M343.595 60.826C343.835 60.768 344.084 60.1818 344.178 59.9835" fill="none" opacity="1" stroke="#000000" stroke-linecap="round" stroke-linejoin="miter" stroke-width="1.1"/>
<path d="M337.987 59.9227C338.132 59.6486 338.007 58.9097 338.007 58.5937" fill="none" opacity="1" stroke="#000000" stroke-linecap="round" stroke-linejoin="miter" stroke-width="1.1"/>
<path d="M335.084 62.915C334.539 62.915 334.125 62.8375 333.799 62.358" fill="none" opacity="1" stroke="#000000" stroke-linecap="round" stroke-linejoin="miter" stroke-width="1.1"/>
<path d="M333.055 69.9474L333.114 69.9474L333.264 69.9474L333.355 69.9474L333.432 69.9334L333.491 69.9189L333.536 69.9048L333.567 69.8772L333.612 69.8583L333.678 69.8443L333.753 69.8352L333.822 69.8352L333.891 69.8352L333.891 69.8352" fill="none" opacity="1" stroke="#000000" stroke-linecap="round" stroke-linejoin="miter" stroke-width="1.1"/>
</g>
<g clip-path="url(#ArtboardFrame)" id="Слой-2" vectornator:layerName="Слой 2">
<path d="M392.284 25.2587C391.425 25.6484 392.662 29.3622 392.948 29.7952C394.737 32.5053 397.55 33.9744 400.538 34.994C400.995 35.15 402.817 36.0456 403.253 35.3361C405.128 32.2854 404.612 18.6095 401.62 16.5195C399.3 14.8991 393.484 16.2848 392.989 19.4534" fill="none" opacity="1" stroke="#000000" stroke-linecap="round" stroke-linejoin="miter" stroke-width="4.1"/>
<path d="M399.356 60.1689C399.356 54.7323 400.261 48.5606 399.285 43.2307C399.057 41.9881 395.18 40.7972 394.885 41.284" fill="none" opacity="1" stroke="#000000" stroke-linecap="round" stroke-linejoin="miter" stroke-width="4.1"/>
<path d="M376.787 57.1789C378.991 57.1789 383.302 58.0502 385.345 57.1428C386.977 56.4179 386.024 49.3758 388.868 47.9249C389.745 47.4774 391.485 48.5732 392.41 48.6695" fill="none" opacity="1" stroke="#000000" stroke-linecap="round" stroke-linejoin="miter" stroke-width="4.1"/>
<path d="M409.903 47.9785C410.785 47.3686 413.379 47.7304 414.314 48.3176C416.466 49.669 414.297 52.793 415.801 54.2611C417.297 55.7221 422.945 55.17 423.191 52.4177" fill="none" opacity="1" stroke="#000000" stroke-linecap="round" stroke-linejoin="miter" stroke-width="4.1"/>
<path d="M385.988 91.9249C386.526 91.4276 385.808 83.6002 386.203 81.9888C387.697 75.8788 392.363 68.5753 397.606 64.8982" fill="none" opacity="1" stroke="#000000" stroke-linecap="round" stroke-linejoin="miter" stroke-width="4.1"/>
<path d="M411.528 92.0682C411.528 85.1711 412.465 77.6711 408.623 71.5158C406.48 68.0819 401.481 69.969 401.481 65.4867" fill="none" opacity="1" stroke="#000000" stroke-linecap="round" stroke-linejoin="miter" stroke-width="4.1"/>
<path d="M397.841 24.344L397.993 24.344L398.445 24.344L398.727 24.344L398.944 24.344L399.144 24.3288L399.307 24.2794L399.438 24.2452L399.548 24.2452L399.602 24.2452L399.606 24.2122L399.606 24.1646L399.606 24.1029L399.606 24.1029" fill="none" opacity="1" stroke="#000000" stroke-linecap="round" stroke-linejoin="miter" stroke-width="4.1"/>
<path d="M399.933 28.889L400.073 28.889L400.167 28.889L400.274 28.889L400.522 28.889L400.572 28.889L400.671 28.889L400.783 28.889L400.899 28.889L401.022 28.889L401.178 28.8693L401.339 28.8199L401.524 28.7901L401.742 28.7901L402.052 28.7901L402.052 28.7901" fill="none" opacity="1" stroke="#000000" stroke-linecap="round" stroke-linejoin="miter" stroke-width="4.1"/>
<path d="M387.27 17.9766C392.843 17.9766 398.489 18.2323 404.055 17.9145C404.373 17.8964 408.515 17.6693 408.515 17.2785" fill="none" opacity="1" stroke="#000000" stroke-linecap="round" stroke-linejoin="miter" stroke-width="4.1"/>
<path d="M390.921 17.9824C390.921 16.8285 390.549 10.5876 391.121 9.99514C391.909 9.17781 394.399 9.67414 395.394 9.67414C398.84 9.67414 402.979 9.76953 402.979 14.3902" fill="none" opacity="1" stroke="#000000" stroke-linecap="round" stroke-linejoin="miter" stroke-width="4.1"/>
<path d="M427.354 49.1788C426.744 48.1116 425.793 47.2541 424.821 46.5095C424.33 46.1342 422.102 44.5872 421.299 45.1071C420.769 45.4498 421.129 48.4775 421.129 49.0717C421.129 53.0961 422.136 57.1312 422.672 61.1073C422.88 62.6496 423.092 64.1725 423.355 65.7072C423.618 67.2377 423.841 68.7772 424.055 70.3151C424.342 72.3739 424.463 74.4624 424.522 76.5407C424.609 79.574 424.653 82.5205 425.226 85.5134C425.434 86.6004 425.648 87.6768 425.906 88.752C425.957 88.9635 426.295 90.0919 426.295 89.8378" fill="none" opacity="1" stroke="#000000" stroke-linecap="round" stroke-linejoin="miter" stroke-width="4.1"/>
<path d="M420.645 62.2475L420.915 62.2475L422.043 62.2475L422.734 62.2475L423.122 62.2475L423.348 62.2475L423.348 62.2475" fill="none" opacity="1" stroke="#000000" stroke-linecap="round" stroke-linejoin="miter" stroke-width="4.1"/>
<path d="M423.255 62.2475C425.204 61.7298 426.877 60.4568 428.919 60.2374" fill="none" opacity="1" stroke="#000000" stroke-linecap="round" stroke-linejoin="miter" stroke-width="4.1"/>
<path d="M403.353 61.6599C403.353 60.2218 403.308 58.971 403.912 57.6341C404.877 55.4979 406.803 53.9519 407.784 51.8409C408.209 50.9244 407.96 49.5674 407.96 48.5828C407.96 44.8517 406.956 41.2754 402.698 41.2754" fill="none" opacity="1" stroke="#000000" stroke-linecap="round" stroke-linejoin="miter" stroke-width="4.1"/>
</g>
</svg>
