<?xml version="1.0" encoding="UTF-8" standalone="no"?>
<!DOCTYPE svg PUBLIC "-//W3C//DTD SVG 1.1//EN" "http://www.w3.org/Graphics/SVG/1.1/DTD/svg11.dtd">
<!-- Created with Vectornator (http://vectornator.io/) -->
<svg height="100%" stroke-miterlimit="10" style="fill-rule:nonzero;clip-rule:evenodd;stroke-linecap:round;stroke-linejoin:round;" version="1.1" viewBox="0 0 86.0125 75.2352" width="100%" xml:space="preserve" xmlns="http://www.w3.org/2000/svg" xmlns:vectornator="http://vectornator.io" xmlns:xlink="http://www.w3.org/1999/xlink">
<defs/>
<g id="Слой-1" vectornator:layerName="Слой 1">
<path d="M12.8929 59.4894C18.0325 58.9388 23.9723 59.3943 28.2068 56.2556C30.4552 54.5891 31.2277 52.2099 33.0219 50.2879C34.1244 49.1067 35.8836 48.4187 37.3184 47.558C40.7998 45.4694 43.4736 43.0504 47.9856 43.0504" fill="none" opacity="1" stroke="#000000" stroke-linecap="round" stroke-linejoin="miter" stroke-width="2.1"/>
<path d="M47.8249 43.0112C47.346 44.3373 47.0985 45.6681 46.3922 46.9129C44.8473 49.6359 42.3693 51.9606 40.8765 54.7164" fill="none" opacity="1" stroke="#000000" stroke-linecap="round" stroke-linejoin="miter" stroke-width="2.1"/>
<path d="M41.0254 54.5062C46.7827 53.6427 52.2786 49.7756 57.4664 47.3116C59.2017 46.4875 61.5216 44.4455 63.5625 44.4455C64.0198 44.4455 63.2967 47.2194 63.193 47.4286C62.855 48.1108 62.3606 48.7529 61.8999 49.3589C61.632 49.7113 61.5191 49.811 61.161 50.2363C60.2904 51.27 59.2948 52.2557 58.2053 53.1024C58.0907 53.1914 57.9405 53.4358 57.8358 53.3364C57.7261 53.2321 58.2977 53.0073 58.3284 52.9854C59.5637 52.1054 61.0154 51.555 62.2693 50.7042C64.6502 49.0888 67.5717 47.9959 70.459 47.6041C70.7632 47.5628 72.8545 46.9549 73.1684 47.2532C73.9782 48.0225 71.9135 50.4808 71.3211 50.9967C68.432 53.5123 64.5746 55.0708 61.161 56.7874C60.0472 57.3475 58.844 57.7709 57.7127 58.3082C56.9734 58.6594 57.0615 58.5422 56.6659 58.5422C56.6453 58.5422 56.5898 58.556 56.6043 58.5422C57.2543 57.9247 58.5716 57.8086 59.3752 57.3724C62.513 55.6691 65.8474 54.6352 69.4122 53.9798C69.9707 53.8771 72.9694 52.9446 73.23 53.6873C74.9639 58.6291 69.0636 60.1994 65.4097 61.9348C63.7536 62.7214 62.3183 63.4975 60.5452 64.099C60.3548 64.1636 59.991 64.525 59.991 64.333C59.991 63.7076 62.2297 63.2441 62.6388 63.1631C65.9291 62.512 70.1313 64.5966 66.0255 67.4331C65.7735 67.6072 64.6804 68.1598 64.4245 68.252C58.8532 70.2594 52.3128 69.2288 46.5057 69.3633C38.7484 69.5431 30.9902 69.6363 23.2321 69.7728C20.8416 69.8148 18.0606 70.6502 15.8429 70.6502" fill="none" opacity="1" stroke="#000000" stroke-linecap="round" stroke-linejoin="miter" stroke-width="2.1"/>
<path d="M10.468 31.7121C13.058 35.5972 16.8702 40.189 16.8702 45.1903" fill="none" opacity="1" stroke="#000000" stroke-linecap="round" stroke-linejoin="miter" stroke-width="2.1"/>
<path d="M10.7178 31.1752C10.3525 28.4361 15.4132 27.0385 16.8602 29.5823C17.6378 30.9493 16.3633 33.6776 15.5533 34.8513C15.1983 35.3657 14.3771 36.3217 14.3771 36.3217C14.3771 36.3217 14.7381 35.9194 14.9652 35.7703C15.809 35.2165 16.6562 34.6308 17.6443 34.2999C19.5593 33.6586 23.4377 33.5609 24.6362 35.6478C26.1304 38.2494 23.3269 43.7797 21.4344 45.0218C19.8312 46.0739 18.0905 45.8422 16.4028 46.3696C16.2872 46.4058 16.1414 46.4762 16.1414 46.3084" fill="none" opacity="1" stroke="#000000" stroke-linecap="round" stroke-linejoin="miter" stroke-width="2.1"/>
<path d="M25.132 26.3932C26.1567 28.8269 27.6251 31.0895 28.637 33.5348C29.4135 35.4115 29.2983 38.0139 29.2983 40.0156" fill="none" opacity="1" stroke="#000000" stroke-linecap="round" stroke-linejoin="miter" stroke-width="2.1"/>
<path d="M26.4546 27.0539C25.5801 23.5566 32.6859 22.3299 33.8613 26.3265C34.6542 29.0222 29.5194 30.9112 27.8434 31.7492C27.7164 31.8127 29.1187 32.7816 29.2321 32.8735C29.6909 33.2449 30.3825 33.9349 30.7531 34.3945C31.7277 35.6029 33.9274 38.3934 33.9274 40.0156" fill="none" opacity="1" stroke="#000000" stroke-linecap="round" stroke-linejoin="miter" stroke-width="2.1"/>
<path d="M40.0776 38.8253C40.0776 35.013 40.6629 31.0005 41.0035 27.1862C41.0997 26.108 41.3682 24.6244 41.5987 23.549C41.6693 23.2192 41.5433 22.3349 41.7971 22.557C42.3547 23.045 42.5196 23.8521 42.9213 24.4748C43.5586 25.4627 44.4209 26.2634 44.9713 27.3184C46.0876 29.458 45.7548 32.1048 46.1617 34.3938C46.3007 35.176 47.0214 36.5269 47.0214 37.3698" fill="none" opacity="1" stroke="#000000" stroke-linecap="round" stroke-linejoin="miter" stroke-width="2.1"/>
<path d="M40.1438 32.2777C41.7061 31.8313 43.9921 30.4523 45.6988 31.0212C45.9022 31.089 45.8726 31.6702 46.1617 31.8147" fill="none" opacity="1" stroke="#000000" stroke-linecap="round" stroke-linejoin="miter" stroke-width="2.1"/>
<path d="M54.405 38.9601C53.5134 38.0685 55.0002 29.7053 55.0002 27.9823C55.0002 26.2428 54.5787 25.3501 53.8098 23.8822C53.6588 23.5939 53.1854 22.7399 53.3469 23.0225C55.0859 26.0658 57.3367 28.7359 58.7035 32.0163C59.2043 33.2183 59.7624 34.5215 60.0923 35.7858C60.3354 36.7177 60.1639 36.2594 60.2245 37.1084C60.2372 37.2857 60.1485 37.7441 60.2907 37.6375C62.098 36.282 63.994 30.1427 64.9198 27.9823C65.1539 27.4362 66.9625 23.4854 66.1102 23.4854" fill="none" opacity="1" stroke="#000000" stroke-linecap="round" stroke-linejoin="miter" stroke-width="2.1"/>
<path d="M66.6729 40.0788C69.1495 36.7765 71.5016 33.4632 73.3521 29.7623C73.5712 29.324 74.8035 26.3235 74.3441 26.3235" fill="none" opacity="1" stroke="#000000" stroke-linecap="round" stroke-linejoin="miter" stroke-width="2.1"/>
<path d="M66.3354 40.8627C72.1452 41.456 86.1324 40.9881 80.6904 31.6006C79.3214 29.2391 76.3119 28.3863 74.3361 26.7012" fill="none" opacity="1" stroke="#000000" stroke-linecap="round" stroke-linejoin="miter" stroke-width="2.1"/>
<path d="M4.49099 11.8962C4.16034 13.0645 3.8309 14.2332 3.49902 15.4012C3.22956 16.3495 2.97874 17.3035 2.68362 18.2442C1.96142 20.5462 2.85846 18.7114 4.20464 17.8474C5.24462 17.1799 6.3042 16.5423 7.37769 15.9302C8.40135 15.3465 10.9084 14.5362 11.6737 13.771C11.828 13.6167 11.3239 14.0473 11.2108 14.2339C10.8734 14.7906 10.5846 15.3754 10.285 15.9533C10.0888 16.3316 7.48918 20.7141 7.02269 20.7141" fill="none" opacity="1" stroke="#000000" stroke-linecap="round" stroke-linejoin="miter" stroke-width="2.1"/>
<path d="M77.7333 18.1066C77.8496 17.0593 78.2944 16.0751 78.593 15.0646C78.8704 14.1257 79.0108 13.1085 79.2543 12.1548C79.4183 11.5123 79.6176 10.8791 79.7833 10.237C79.8597 9.94106 79.8213 10.9588 80.0479 12.4187C80.2271 13.5738 80.2769 16.5204 81.5027 17.3785C82.1859 17.8568 83.9078 11.6629 83.4867 15.593C83.4604 15.8381 83.3925 16.0769 83.3544 16.3204C83.2822 16.7825 83.214 17.2452 83.156 17.7092C83.1191 18.0047 83.0433 19.0417 83.0238 19.2963" fill="none" opacity="1" stroke="#000000" stroke-linecap="round" stroke-linejoin="miter" stroke-width="2.1"/>
<path d="M24.8888 16.468C37.0862 17.3715 49.8254 17.3947 61.9745 16.1757C63.7528 15.9973 65.4971 15.5614 67.2418 15.1735C67.8385 15.0408 68.7271 14.9677 68.8951 14.3799C68.9321 14.2502 67.8248 13.7527 66.5805 13.3879C65.7955 13.1579 65.0059 12.9316 64.1997 12.7928C61.2098 12.2778 58.147 12.3343 55.1143 12.2461C45.4752 11.9656 36.2157 12.2555 26.66 13.4248C24.1773 13.7286 20.3733 14.0835 17.8568 15.1404C17.0159 15.4936 16.2868 16.6288 16.3357 16.6614C17.2864 17.2952 20.4899 13.917 21.1633 13.4871C22.4836 12.6444 23.213 12.336 24.4031 11.1289C27.3531 8.1368 25.4638 4.59492 21.2288 4.18509C19.857 4.05233 18.8581 4.79775 19.1126 6.36741C20.2275 13.2429 34.3423 11.923 38.6161 10.6897C40.3383 10.1928 42.5655 9.84872 43.8361 8.35393C44.7652 7.26088 44.3368 5.91425 43.9684 4.71672C42.9058 1.2635 38.8588 3.64535 39.8682 6.43613C40.0971 7.06897 40.5267 7.61409 40.9263 8.15554C41.5231 8.96411 42.7349 9.94889 43.5054 10.4701C44.9261 11.4311 48.2906 11.9865 49.917 12.1234C55.4598 12.5901 61.0004 11.6915 66.3356 10.3071C68.6616 9.70348 71.1345 9.38704 73.2372 8.2236C73.7554 7.93683 74.4936 7.55942 74.4936 6.96711C74.4936 2.08475 65.9364 2.50107 65.4998 5.64449C64.8961 9.99129 68.278 12.0608 69.9967 15.498" fill="none" opacity="1" stroke="#000000" stroke-linecap="round" stroke-linejoin="miter" stroke-width="2.1"/>
</g>
</svg>
